<?xml version="1.0" encoding="UTF-8"?>
<!-- Generator: Adobe Illustrator 19.0.0, SVG Export Plug-In . SVG Version: 6.00 Build 0)  --><svg xmlns="http://www.w3.org/2000/svg" xmlns:xlink="http://www.w3.org/1999/xlink" version="1.1" id="Layer_1" x="0px" y="0px" viewBox="0 0 420 624" style="enable-background:new 0 0 420 624;" xml:space="preserve">
<style type="text/css">
	.st0{fill:#666666;stroke:#000000;stroke-width:0.744;stroke-miterlimit:10;}
	.st1{fill:#0071BC;stroke:#000000;stroke-width:0.744;stroke-miterlimit:10;}
	.st2{fill:#B76800;stroke:#000000;stroke-width:0.744;stroke-miterlimit:10;}
	.st3{fill:#47BEFF;stroke:#000000;stroke-width:0.744;stroke-miterlimit:10;}
	.st4{fill:#F2F2F2;}
	.st5{font-family:'BankGothic-Medium';}
	.st6{font-size:8.9274px;}
	.st7{font-size:12.6472px;}
</style>
<g id="XMLID_24_">
	<path id="XMLID_1_" class="st0" d="M286.4,68.7H138.7c-4.9,0-8.9-4-8.9-8.9V29.6c0-4.9,4-8.9,8.9-8.9h147.7c4.9,0,8.9,4,8.9,8.9   v30.1C295.4,64.6,291.3,68.7,286.4,68.7z" />
	<path id="XMLID_3_" class="st1" d="M203.6,117H55.9c-4.9,0-8.9-4-8.9-8.9V77.9c0-4.9,4-8.9,8.9-8.9h147.7c4.9,0,8.9,4,8.9,8.9V108   C212.6,112.9,208.5,117,203.6,117z" />
	<path id="XMLID_4_" class="st1" d="M369.2,117H221.5c-4.9,0-8.9-4-8.9-8.9V77.9c0-4.9,4-8.9,8.9-8.9h147.7c4.9,0,8.9,4,8.9,8.9V108   C378.1,112.9,374.1,117,369.2,117z" />
	<path id="XMLID_5_" class="st2" d="M203.6,164.7H55.9c-4.9,0-8.9-4-8.9-8.9v-30.1c0-4.9,4-8.9,8.9-8.9h147.7c4.9,0,8.9,4,8.9,8.9   v30.1C212.6,160.6,208.5,164.7,203.6,164.7z" />
	<path id="XMLID_6_" class="st2" d="M369.2,165.6H221.5c-4.9,0-8.9-4-8.9-8.9v-30.1c0-4.9,4-8.9,8.9-8.9h147.7c4.9,0,8.9,4,8.9,8.9   v30.1C378.1,161.5,374.1,165.6,369.2,165.6z" />
	<path id="XMLID_10_" class="st3" d="M203.6,212.7H55.9c-4.9,0-8.9-4-8.9-8.9v-30.1c0-4.9,4-8.9,8.9-8.9h147.7c4.9,0,8.9,4,8.9,8.9   v30.1C212.6,208.6,208.5,212.7,203.6,212.7z" />
	<path id="XMLID_9_" class="st3" d="M369.2,212.7H221.5c-4.9,0-8.9-4-8.9-8.9v-30.1c0-4.9,4-8.9,8.9-8.9h147.7c4.9,0,8.9,4,8.9,8.9   v30.1C378.1,208.6,374.1,212.7,369.2,212.7z" />
	<path id="XMLID_8_" class="st1" d="M203.6,260.7H55.9c-4.9,0-8.9-4-8.9-8.9v-30.1c0-4.9,4-8.9,8.9-8.9h147.7c4.9,0,8.9,4,8.9,8.9   v30.1C212.6,256.6,208.5,260.7,203.6,260.7z" />
	<path id="XMLID_7_" class="st1" d="M369.2,260.7H221.5c-4.9,0-8.9-4-8.9-8.9v-30.1c0-4.9,4-8.9,8.9-8.9h147.7c4.9,0,8.9,4,8.9,8.9   v30.1C378.1,256.6,374.1,260.7,369.2,260.7z" />
	<path id="XMLID_14_" class="st2" d="M203.6,309.2H55.9c-4.9,0-8.9-4-8.9-8.9v-30.1c0-4.9,4-8.9,8.9-8.9h147.7c4.9,0,8.9,4,8.9,8.9   v30.1C212.6,305.2,208.5,309.2,203.6,309.2z" />
	<path id="XMLID_13_" class="st2" d="M369.2,309.2H221.5c-4.9,0-8.9-4-8.9-8.9v-30.1c0-4.9,4-8.9,8.9-8.9h147.7c4.9,0,8.9,4,8.9,8.9   v30.1C378.1,305.2,374.1,309.2,369.2,309.2z" />
	<path id="XMLID_12_" class="st3" d="M203.6,357.2H55.9c-4.9,0-8.9-4-8.9-8.9v-30.1c0-4.9,4-8.9,8.9-8.9h147.7c4.9,0,8.9,4,8.9,8.9   v30.1C212.6,353.2,208.5,357.2,203.6,357.2z" />
	<path id="XMLID_11_" class="st3" d="M369.2,357.2H221.5c-4.9,0-8.9-4-8.9-8.9v-30.1c0-4.9,4-8.9,8.9-8.9h147.7c4.9,0,8.9,4,8.9,8.9   v30.1C378.1,353.2,374.1,357.2,369.2,357.2z" />
	<path id="XMLID_18_" class="st1" d="M203.6,405.2H55.9c-4.9,0-8.9-4-8.9-8.9v-30.1c0-4.9,4-8.9,8.9-8.9h147.7c4.9,0,8.9,4,8.9,8.9   v30.1C212.6,401.2,208.5,405.2,203.6,405.2z" />
	<path id="XMLID_17_" class="st1" d="M369.2,405.2H221.5c-4.9,0-8.9-4-8.9-8.9v-30.1c0-4.9,4-8.9,8.9-8.9h147.7c4.9,0,8.9,4,8.9,8.9   v30.1C378.1,401.2,374.1,405.2,369.2,405.2z" />
	<path id="XMLID_16_" class="st2" d="M203.6,453.2H55.9c-4.9,0-8.9-4-8.9-8.9v-30.1c0-4.9,4-8.9,8.9-8.9h147.7c4.9,0,8.9,4,8.9,8.9   v30.1C212.6,449.2,208.5,453.2,203.6,453.2z" />
	<path id="XMLID_15_" class="st2" d="M369.2,453.2H221.5c-4.9,0-8.9-4-8.9-8.9v-30.1c0-4.9,4-8.9,8.9-8.9h147.7c4.9,0,8.9,4,8.9,8.9   v30.1C378.1,449.2,374.1,453.2,369.2,453.2z" />
	<path id="XMLID_22_" class="st3" d="M203.6,501.5H55.9c-4.9,0-8.9-4-8.9-8.9v-30.1c0-4.9,4-8.9,8.9-8.9h147.7c4.9,0,8.9,4,8.9,8.9   v30.1C212.6,497.5,208.5,501.5,203.6,501.5z" />
	<path id="XMLID_21_" class="st3" d="M369.2,501.5H221.5c-4.9,0-8.9-4-8.9-8.9v-30.1c0-4.9,4-8.9,8.9-8.9h147.7c4.9,0,8.9,4,8.9,8.9   v30.1C378.1,497.5,374.1,501.5,369.2,501.5z" />
	<path id="XMLID_20_" class="st1" d="M203.6,549.5H55.9c-4.9,0-8.9-4-8.9-8.9v-30.1c0-4.9,4-8.9,8.9-8.9h147.7c4.9,0,8.9,4,8.9,8.9   v30.1C212.6,545.5,208.5,549.5,203.6,549.5z" />
	<path id="XMLID_19_" class="st1" d="M369.2,549.5H221.5c-4.9,0-8.9-4-8.9-8.9v-30.1c0-4.9,4-8.9,8.9-8.9h147.7c4.9,0,8.9,4,8.9,8.9   v30.1C378.1,545.5,374.1,549.5,369.2,549.5z" />
	<text id="XMLID_2_" transform="matrix(1 0 0 1 132.953 41.7617)"><tspan x="0" y="0" class="st4 st5 st6">Transition Words and Phrases </tspan><tspan x="29.3" y="10.7" class="st4 st5 st6">for Expressing Time</tspan></text>
	<text id="XMLID_23_" transform="matrix(1 0 0 1 73.974 92.9619)" class="st4 st5 st7">after/afterward</text>
	<text id="XMLID_26_" transform="matrix(1 0 0 1 95.8344 141.5585)" class="st4 st5 st7">currently</text>
	<text id="XMLID_27_" transform="matrix(1 0 0 1 115.6903 190.288)" class="st4 st5 st7">next</text>
	<text id="XMLID_28_" transform="matrix(1 0 0 1 105.1264 234.4443)" class="st4 st5 st7">finally</text>
	<text id="XMLID_29_" transform="matrix(1 0 0 1 113.8813 285.249)" class="st4 st5 st7">until</text>
	<text id="XMLID_34_" transform="matrix(1 0 0 1 106.04 335.0938)" class="st4 st5 st7">at last</text>
	<text id="XMLID_35_" transform="matrix(1 0 0 1 92.7104 381.243)" class="st4 st5 st7">eventually</text>
	<text id="XMLID_36_" transform="matrix(1 0 0 1 111.3106 429.2402)" class="st4 st5 st7">since</text>
	<text id="XMLID_40_" transform="matrix(1 0 0 1 113.018 479.581)" class="st4 st5 st7">still</text>
	<text id="XMLID_42_" transform="matrix(1 0 0 1 111.0581 525.5331)" class="st4 st5 st7">while</text>
	<text id="XMLID_25_" transform="matrix(1 0 0 1 256.1646 92.9619)" class="st4 st5 st7">as soon as</text>
	<text id="XMLID_30_" transform="matrix(1 0 0 1 269.5463 141.5585)" class="st4 st5 st7">during</text>
	<text id="XMLID_31_" transform="matrix(1 0 0 1 275.2617 234.4448)" class="st4 st5 st7">Later</text>
	<text id="XMLID_33_" transform="matrix(1 0 0 1 239.8129 285.2498)" class="st4 st5 st7">when/whenever</text>
	<text id="XMLID_37_" transform="matrix(1 0 0 1 269.1655 335.0938)" class="st4 st5 st7">before</text>
	<text id="XMLID_38_" transform="matrix(1 0 0 1 257.1327 381.243)" class="st4 st5 st7">meanwhile</text>
	<text id="XMLID_39_" transform="matrix(1 0 0 1 275.3822 429.2401)" class="st4 st5 st7">soon</text>
	<text id="XMLID_41_" transform="matrix(1 0 0 1 276.5009 477.537)" class="st4 st5 st7">then</text>
	<text id="XMLID_43_" transform="matrix(1 0 0 1 227.4496 525.5332)" class="st4 st5 st7">first,second,third</text>
	<text id="XMLID_32_" transform="matrix(1 0 0 1 278.1142 188.6557)" class="st4 st5 st7">Now</text>
</g>
</svg>
