<?xml version="1.0" encoding="UTF-8"?>
<!-- Generator: Adobe Illustrator 18.0.0, SVG Export Plug-In . SVG Version: 6.00 Build 0)  --><svg xmlns="http://www.w3.org/2000/svg" xmlns:sketch="http://www.bohemiancoding.com/sketch/ns" xmlns:xlink="http://www.w3.org/1999/xlink" version="1.1" id="Layer_1" x="0px" y="0px" viewBox="0 0 27 27" enable-background="new 0 0 27 27" xml:space="preserve">
<title>info + Star 1</title>
<desc>Created with Sketch.</desc>
<g id="Page-1" sketch:type="MSPage">
	<g id="info-_x2B_-Star-1" sketch:type="MSLayerGroup">
		<g id="info" sketch:type="MSShapeGroup" opacity="0.85">
			<path id="Shape" fill="#FFFFFF" d="M13.5,2.1c6.3,0,11.4,5.1,11.4,11.4s-5.1,11.4-11.4,11.4S2.1,19.8,2.1,13.5S7.2,2.1,13.5,2.1     L13.5,2.1z M13.5,0C6.1,0,0,6.1,0,13.5S6.1,27,13.5,27S27,20.9,27,13.5S20.9,0,13.5,0L13.5,0z" />
		</g>
		<polygon id="Star-1" sketch:type="MSShapeGroup" fill="#FFFFFF" points="13.5,16.5 9.9,18.4 10.6,14.4 7.6,11.5 11.7,10.9     13.5,7.2 15.3,10.9 19.4,11.5 16.4,14.4 17.1,18.4   ">
		</polygon>
	</g>
</g>
</svg>
