<?xml version="1.0" encoding="UTF-8"?>
<!-- Generator: Adobe Illustrator 18.0.0, SVG Export Plug-In . SVG Version: 6.00 Build 0)  --><svg xmlns="http://www.w3.org/2000/svg" xmlns:sketch="http://www.bohemiancoding.com/sketch/ns" xmlns:xlink="http://www.w3.org/1999/xlink" version="1.1" id="Layer_1" x="0px" y="0px" viewBox="0 0 27 27" enable-background="new 0 0 27 27" xml:space="preserve">
<title>info + Star 1 + Triangle 1</title>
<desc>Created with Sketch.</desc>
<g id="info-_x2B_-Star-1" sketch:type="MSShapeGroup" opacity="0.85">
	<g id="info">
		<path id="Shape" fill="#FFFFFF" d="M13.5,2.1c6.3,0,11.4,5.1,11.4,11.4s-5.1,11.4-11.4,11.4S2.1,19.8,2.1,13.5S7.2,2.1,13.5,2.1    L13.5,2.1z M13.5,0C6.1,0,0,6.1,0,13.5S6.1,27,13.5,27S27,20.9,27,13.5S20.9,0,13.5,0L13.5,0z" />
	</g>
</g>
<g>
	<path fill="#FFFFFF" d="M13.5,16.4c0.9,0,1.5,0.6,1.5,1.5c0,0.9-0.7,1.5-1.5,1.5S12,18.8,12,17.9C12,17,12.6,16.4,13.5,16.4z    M12.3,9.9l-0.1-2.4h2.6l-0.1,2.4l-0.4,4.3l-1.8,0L12.3,9.9z" />
</g>
</svg>
