<svg id="Lab" xmlns="http://www.w3.org/2000/svg" xmlns:xlink="http://www.w3.org/1999/xlink" viewBox="0 0 124 423"><defs><linearGradient id="linear-gradient" x1="404.04" y1="550.03" x2="426.01" y2="521.38" gradientTransform="translate(462 562) rotate(180)" gradientUnits="userSpaceOnUse"><stop offset="0.53" stop-color="#ff2433" stop-opacity="0"/><stop offset="0.65" stop-color="#f22433" stop-opacity="0.29"/><stop offset="0.82" stop-color="#e22433" stop-opacity="0.67"/><stop offset="0.94" stop-color="#d82433" stop-opacity="0.91"/><stop offset="1" stop-color="#d42433"/></linearGradient><linearGradient id="linear-gradient-2" x1="397.65" y1="552.42" x2="372.79" y2="522.03" gradientTransform="translate(462 562) rotate(180)" gradientUnits="userSpaceOnUse"><stop offset="0.53" stop-color="#ff2433" stop-opacity="0"/><stop offset="0.57" stop-color="#fd2433" stop-opacity="0.05"/><stop offset="0.65" stop-color="#f72433" stop-opacity="0.18"/><stop offset="0.76" stop-color="#ef2433" stop-opacity="0.4"/><stop offset="0.88" stop-color="#e22433" stop-opacity="0.7"/><stop offset="1" stop-color="#d62433"/></linearGradient></defs><title>cyclinder</title><g id="Cylinder"><polygon points="32 42 92 42 92 402 102 422 22 422 32 392 32 42" style="fill:none;stroke:#000;stroke-miterlimit:10;stroke-width:2px"/><line x1="42" y1="332" x2="32" y2="332" style="fill:none;stroke:#000;stroke-linecap:round;stroke-miterlimit:10;stroke-width:1.013px"/><line x1="42" y1="312" x2="32" y2="312" style="fill:none;stroke:#000;stroke-linecap:round;stroke-miterlimit:10;stroke-width:1.013px"/><line x1="42" y1="292" x2="32" y2="292" style="fill:none;stroke:#000;stroke-linecap:round;stroke-miterlimit:10;stroke-width:1.013px"/><line x1="42" y1="272" x2="32" y2="272" style="fill:none;stroke:#000;stroke-linecap:round;stroke-miterlimit:10;stroke-width:1.013px"/><line x1="42" y1="252" x2="32" y2="252" style="fill:none;stroke:#000;stroke-linecap:round;stroke-miterlimit:10;stroke-width:1.013px"/><line x1="42" y1="232" x2="32" y2="232" style="fill:none;stroke:#000;stroke-linecap:round;stroke-miterlimit:10;stroke-width:1.013px"/><line x1="42" y1="212" x2="32" y2="212" style="fill:none;stroke:#000;stroke-linecap:round;stroke-miterlimit:10;stroke-width:1.013px"/><line x1="42" y1="192" x2="32" y2="192" style="fill:none;stroke:#000;stroke-linecap:round;stroke-miterlimit:10;stroke-width:1.013px"/><line x1="42" y1="172" x2="32" y2="172" style="fill:none;stroke:#000;stroke-linecap:round;stroke-miterlimit:10;stroke-width:1.013px"/><line x1="42" y1="152" x2="32" y2="152" style="fill:none;stroke:#000;stroke-linecap:round;stroke-miterlimit:10;stroke-width:1.013px"/><line x1="42" y1="132" x2="32" y2="132" style="fill:none;stroke:#000;stroke-linecap:round;stroke-miterlimit:10;stroke-width:1.013px"/><line x1="42" y1="112" x2="32" y2="112" style="fill:none;stroke:#000;stroke-linecap:round;stroke-miterlimit:10;stroke-width:1.013px"/><line x1="42" y1="92" x2="32" y2="92" style="fill:none;stroke:#000;stroke-linecap:round;stroke-miterlimit:10;stroke-width:1.013px"/><line x1="42" y1="72" x2="32" y2="72" style="fill:none;stroke:#000;stroke-linecap:round;stroke-miterlimit:10;stroke-width:1.013px"/><line x1="42" y1="52" x2="32" y2="52" style="fill:none;stroke:#000;stroke-linecap:round;stroke-miterlimit:10;stroke-width:1.013px"/><line x1="62" y1="342" x2="32" y2="342" style="fill:none;stroke:#000;stroke-linecap:round;stroke-miterlimit:10;stroke-width:1.013px"/><line x1="62" y1="322" x2="32" y2="322" style="fill:none;stroke:#000;stroke-linecap:round;stroke-miterlimit:10;stroke-width:1.013px"/><line x1="62" y1="302" x2="32" y2="302" style="fill:none;stroke:#000;stroke-linecap:round;stroke-miterlimit:10;stroke-width:1.013px"/><line x1="62" y1="282" x2="32" y2="282" style="fill:none;stroke:#000;stroke-linecap:round;stroke-miterlimit:10;stroke-width:1.013px"/><line x1="62" y1="262" x2="32" y2="262" style="fill:none;stroke:#000;stroke-linecap:round;stroke-miterlimit:10;stroke-width:1.013px"/><line x1="62" y1="242" x2="32" y2="242" style="fill:none;stroke:#000;stroke-linecap:round;stroke-miterlimit:10;stroke-width:1.013px"/><line x1="62" y1="222" x2="32" y2="222" style="fill:none;stroke:#000;stroke-linecap:round;stroke-miterlimit:10;stroke-width:1.013px"/><line x1="62" y1="202" x2="32" y2="202" style="fill:none;stroke:#000;stroke-linecap:round;stroke-miterlimit:10;stroke-width:1.013px"/><line x1="62" y1="182" x2="32" y2="182" style="fill:none;stroke:#000;stroke-linecap:round;stroke-miterlimit:10;stroke-width:1.013px"/><line x1="62" y1="162" x2="32" y2="162" style="fill:none;stroke:#000;stroke-linecap:round;stroke-miterlimit:10;stroke-width:1.013px"/><line x1="62" y1="142" x2="32" y2="142" style="fill:none;stroke:#000;stroke-linecap:round;stroke-miterlimit:10;stroke-width:1.013px"/><line x1="62" y1="122" x2="32" y2="122" style="fill:none;stroke:#000;stroke-linecap:round;stroke-miterlimit:10;stroke-width:1.013px"/><line x1="62" y1="102" x2="32" y2="102" style="fill:none;stroke:#000;stroke-linecap:round;stroke-miterlimit:10;stroke-width:1.013px"/><line x1="62" y1="82" x2="32" y2="82" style="fill:none;stroke:#000;stroke-linecap:round;stroke-miterlimit:10;stroke-width:1.013px"/><line x1="62" y1="62" x2="32" y2="62" style="fill:none;stroke:#000;stroke-linecap:round;stroke-miterlimit:10;stroke-width:1.013px"/><polygon points="31.59 43 1 12.41 1 1 123 1 123 12.41 92.41 43 31.59 43" style="fill:#ff2433"/><polygon points="31.59 43 1 12.41 1 1 123 1 123 12.41 92.41 43 31.59 43" style="fill:url(#linear-gradient)"/><polygon points="31.59 43 1 12.41 1 1 123 1 123 12.41 92.41 43 31.59 43" style="fill:url(#linear-gradient-2)"/><path d="M500,40V50L470,80H410L380,50V40H500m2-2H378V50.83l.59.59,30,30,.59.59h61.66l.59-.59,30-30,.59-.59V38Z" transform="translate(-378 -38)"/><text transform="translate(82.13 59.9) rotate(180)" style="font-size:10px;font-family:MyriadPro-Regular, Myriad Pro">20</text><text transform="translate(82.13 79.9) rotate(180)" style="font-size:10px;font-family:MyriadPro-Regular, Myriad Pro">40</text><text transform="translate(82.13 99.9) rotate(180)" style="font-size:10px;font-family:MyriadPro-Regular, Myriad Pro">60</text><text transform="translate(82.13 119.9) rotate(180)" style="font-size:10px;font-family:MyriadPro-Regular, Myriad Pro">80</text><text transform="translate(84.69 139.9) rotate(180)" style="font-size:10px;font-family:MyriadPro-Regular, Myriad Pro">100</text><text transform="translate(84.69 159.9) rotate(180)" style="font-size:10px;font-family:MyriadPro-Regular, Myriad Pro">120</text><text transform="translate(84.69 179.9) rotate(180)" style="font-size:10px;font-family:MyriadPro-Regular, Myriad Pro">140</text><text transform="translate(84.69 199.9) rotate(180)" style="font-size:10px;font-family:MyriadPro-Regular, Myriad Pro">160</text><text transform="translate(84.69 219.9) rotate(180)" style="font-size:10px;font-family:MyriadPro-Regular, Myriad Pro">180</text><text transform="translate(84.69 239.9) rotate(180)" style="font-size:10px;font-family:MyriadPro-Regular, Myriad Pro">200</text><text transform="translate(84.69 259.9) rotate(180)" style="font-size:10px;font-family:MyriadPro-Regular, Myriad Pro">220</text><text transform="translate(84.69 279.9) rotate(180)" style="font-size:10px;font-family:MyriadPro-Regular, Myriad Pro">240</text><text transform="translate(84.69 299.9) rotate(180)" style="font-size:10px;font-family:MyriadPro-Regular, Myriad Pro">260</text><text transform="translate(84.69 319.9) rotate(180)" style="font-size:10px;font-family:MyriadPro-Regular, Myriad Pro">280</text><text transform="translate(84.69 339.9) rotate(180)" style="font-size:10px;font-family:MyriadPro-Regular, Myriad Pro">300</text></g></svg>