<svg id="Lab" xmlns="http://www.w3.org/2000/svg" viewBox="0 0 204.5 100"><title>enzyme</title><g id="Enzyme"><path d="M113.89,10h80.74a7.86,7.86,0,0,1,7.86,7.86V82.14A7.86,7.86,0,0,1,194.64,90H113.89a1.39,1.39,0,0,1-1.39-1.39V11.39A1.39,1.39,0,0,1,113.89,10Z" style="fill:#fee09c"/><ellipse cx="112.5" cy="50" rx="10" ry="40" style="fill:#fee09c;stroke:#e5c88f;stroke-miterlimit:10"/><path d="M741.37,440a8.63,8.63,0,0,1,8.63,8.63v62.74a8.63,8.63,0,0,1-8.63,8.63H590V440H741.37m0-2H588v84H741.37A10.64,10.64,0,0,0,752,511.37V448.63A10.64,10.64,0,0,0,741.37,438Z" transform="translate(-547.5 -430)"/><ellipse cx="52.5" cy="50" rx="10" ry="40" style="fill:#282828"/><polygon points="52 10 12 0 12.5 100 52.5 90 52 10" style="fill:#282828"/><ellipse cx="12.5" cy="50" rx="12.5" ry="50"/><circle cx="132.5" cy="38.33" r="5" style="fill:#fee09c;stroke:#e5c88f;stroke-miterlimit:10"/><circle cx="140.5" cy="20" r="5" style="fill:#fee09c;stroke:#e5c88f;stroke-miterlimit:10"/><circle cx="157.5" cy="56" r="5" style="fill:#fee09c;stroke:#e5c88f;stroke-miterlimit:10"/><circle cx="152.5" cy="35" r="5" style="fill:#fee09c;stroke:#e5c88f;stroke-miterlimit:10"/><circle cx="174" cy="22" r="5" style="fill:#fee09c;stroke:#e5c88f;stroke-miterlimit:10"/><circle cx="191.5" cy="20" r="5" style="fill:#fee09c;stroke:#e5c88f;stroke-miterlimit:10"/><circle cx="191.5" cy="41.33" r="5" style="fill:#fee09c;stroke:#e5c88f;stroke-miterlimit:10"/><circle cx="171.5" cy="75" r="5" style="fill:#fee09c;stroke:#e5c88f;stroke-miterlimit:10"/><circle cx="172" cy="40" r="5" style="fill:#fee09c;stroke:#e5c88f;stroke-miterlimit:10"/><circle cx="182" cy="57.67" r="5" style="fill:#fee09c;stroke:#e5c88f;stroke-miterlimit:10"/><circle cx="189" cy="75" r="5" style="fill:#fee09c;stroke:#e5c88f;stroke-miterlimit:10"/><circle cx="139" cy="61" r="5" style="fill:#fee09c;stroke:#e5c88f;stroke-miterlimit:10"/><circle cx="154" cy="79" r="5" style="fill:#fee09c;stroke:#e5c88f;stroke-miterlimit:10"/><circle cx="133" cy="81" r="5" style="fill:#fee09c;stroke:#e5c88f;stroke-miterlimit:10"/></g></svg>