<svg id="Lab" xmlns="http://www.w3.org/2000/svg" xmlns:xlink="http://www.w3.org/1999/xlink" viewBox="0 0 140 530"><defs><linearGradient id="linear-gradient" x1="60" y1="265" x2="80" y2="265" gradientUnits="userSpaceOnUse"><stop offset="0" stop-color="#4d4d4d"/><stop offset="0.07" stop-color="#5b5b5b"/><stop offset="0.18" stop-color="#6b6b6b"/><stop offset="0.27" stop-color="#717171"/><stop offset="0.4" stop-color="#8c8c8c"/><stop offset="0.53" stop-color="#ababab"/><stop offset="0.61" stop-color="#9b9b9b"/><stop offset="0.76" stop-color="#717171"/><stop offset="0.84" stop-color="#6a6a6a"/><stop offset="0.96" stop-color="#565656"/><stop offset="1" stop-color="#4d4d4d"/></linearGradient><linearGradient id="linear-gradient-2" x1="210" y1="530" x2="350" y2="530" xlink:href="#linear-gradient"/><radialGradient id="radial-gradient" cx="26.5" cy="285" r="6.25" gradientUnits="userSpaceOnUse"><stop offset="0" stop-color="#ababab"/><stop offset="0.17" stop-color="#9b9b9b"/><stop offset="0.51" stop-color="#717171"/><stop offset="0.67" stop-color="#6a6a6a"/><stop offset="0.91" stop-color="#565656"/><stop offset="1" stop-color="#4d4d4d"/></radialGradient></defs><title>stand</title><g id="Stand"><rect x="30" y="282.5" width="20" height="5" style="fill:#444"/><path d="M70,0h0A10,10,0,0,1,80,10V530a0,0,0,0,1,0,0H60a0,0,0,0,1,0,0V10A10,10,0,0,1,70,0Z" style="fill:url(#linear-gradient)"/><path d="M350,540H210l15.58-15.58A15.08,15.08,0,0,1,236.25,520h87.5a15.08,15.08,0,0,1,10.67,4.42Z" transform="translate(-210 -10)" style="fill:url(#linear-gradient-2)"/><circle cx="26.5" cy="285" r="6.25" style="fill:url(#radial-gradient)"/></g></svg>