<svg id="Lab" xmlns="http://www.w3.org/2000/svg" xmlns:xlink="http://www.w3.org/1999/xlink" viewBox="0 0 473.31 213.31"><defs><linearGradient id="linear-gradient" x1="544.95" y1="390.53" x2="544.95" y2="540.51" gradientUnits="userSpaceOnUse"><stop offset="0" stop-color="#1e9cd7"/><stop offset="0.6" stop-color="#0075be"/><stop offset="0.82" stop-color="#0074bc"/><stop offset="0.89" stop-color="#006fb5"/><stop offset="0.95" stop-color="#0067aa"/><stop offset="0.99" stop-color="#005c99"/><stop offset="0.99" stop-color="#005b97"/></linearGradient></defs><title>enzyme_setup</title><g id="WaterTub"><path d="M761.15,541H328.85c-10.41,0-22.52-13.42-18.85-24.22V390c0,2.25.75,1.43,2.2,0,1.44.49,3.58-4.27,6.35,0,2.77.13,6.17-.83,10.14,0,4,4.76,8.51-.63,13.57,0,5.05.41,10.62,3.4,16.63,0,6-2,12.48,1.3,19.34,0,6.86-2.35,14.11-3.67,21.69,0,7.58.38,15.49-5.88,23.67,0a179.22,179.22,0,0,1,25.3,0c8.66-1.42,17.54.84,26.56,0,9-1.81,18.2-.23,27.46,0,9.26-6.48,18.62.78,28,0,9.38-2.28,18.8.35,28.18,0a54,54,0,0,1,28,0c9.26.54,18.44,1.25,27.46,0,9,1.12,17.9,6.67,26.56,0,8.66.26,17.12.94,25.3,0,8.18-3.46,16.09-.76,23.67,0,7.58,0,14.83-.41,21.69,0,6.86-4.15,13.33-5,19.34,0,6,4.19,11.58,0,16.63,0,5.05,4,9.6-4.05,13.57,0,4,5,7.37.71,10.14,0H780V516.78C783.33,530.6,771.56,541,761.15,541Z" transform="translate(-308.34 -328.34)" style="fill:url(#linear-gradient)"/><path d="M780,330V518.7A21.3,21.3,0,0,1,758.7,540H331.3A21.3,21.3,0,0,1,310,518.7V330H780m1.66-1.66H308.34V518.7a23,23,0,0,0,23,23H758.7a23,23,0,0,0,23-23V328.34Z" transform="translate(-308.34 -328.34)" style="fill:#424040"/></g></svg>