<?xml version="1.0" encoding="UTF-8"?>
<svg xmlns="http://www.w3.org/2000/svg" xmlns:xlink="http://www.w3.org/1999/xlink" version="1.1" id="Layer_1" x="0px" y="0px" width="35" height="35" viewBox="0 0 35 35" enable-background="new 0 0 35 35" xml:space="preserve">
<path fill="#4A4A4A" d="M34.705,15.408c-0.001,0-0.002,0-0.002-0.002c-0.001,0-0.001-0.002-0.002-0.002l-9.604-9.498     c-0.395-0.389-1.026-0.385-1.414,0.008c-0.389,0.393-0.385,1.025,0.008,1.414l8.891,8.791l-8.795,8.787c0,0-0.671,0.744,0,1.414     c0.672,0.67,1.414,0,1.414,0l9.506-9.498c0,0,0-0.002,0.002-0.002c0,0,0,0,0.002-0.002c0,0,0.289-0.322,0.289-0.705     C35,15.73,34.705,15.408,34.705,15.408z" />
</svg>
