<?xml version="1.0" encoding="UTF-8"?>
<svg xmlns="http://www.w3.org/2000/svg" xmlns:xlink="http://www.w3.org/1999/xlink" version="1.1" id="Layer_1" x="0px" y="0px" width="22px" height="22px" viewBox="0 0 22 22" enable-background="new 0 0 22 22" xml:space="preserve">
<path fill="#C1272D" d="M10.882,15.322l-0.322,0.452c-2.234,3.378-4.067,5.068-5.498,5.068c-1.646,0-3.263-1.339-4.854-4.016  c0.215,0.015,0.373,0.022,0.473,0.022c1.876,0,3.964-1.432,6.271-4.295l0.58-0.729l-0.751-0.817c-2.105-2.233-3.157-4.13-3.157-5.69  c0-1.274,1.153-2.778,3.459-4.51c0.329,2.219,1.31,4.381,2.941,6.485l0.645,0.817l0.515-0.667c2.39-3.048,4.559-4.574,6.506-4.574  c1.517,0,2.67,1.153,3.457,3.458c-0.229-0.028-0.394-0.042-0.494-0.042c-0.687,0-1.652,0.46-2.898,1.384  c-1.246,0.922-2.297,1.966-3.156,3.125l-0.645,0.881l0.623,0.602c2.305,2.233,4.71,3.35,7.215,3.35  c-1.347,2.722-2.749,4.081-4.209,4.081c-1.318,0-3.221-1.16-5.713-3.479L10.882,15.322z" />
</svg>
