<?xml version="1.0" encoding="UTF-8"?>
<!-- Generator: Adobe Illustrator 19.1.0, SVG Export Plug-In . SVG Version: 6.00 Build 0)  --><svg xmlns="http://www.w3.org/2000/svg" xmlns:xlink="http://www.w3.org/1999/xlink" version="1.1" x="0px" y="0px" viewBox="0 0 960 560" style="enable-background:new 0 0 960 560;" xml:space="preserve">
<style type="text/css">
	.st0{fill:#191919;}
	.st1{fill:#2D2D2D;}
	.st2{fill:#262323;}
	.st3{opacity:0.2;fill:#6B6B6B;}
	.st4{fill:none;stroke:#3F3F3F;stroke-width:5;stroke-linecap:round;stroke-linejoin:round;}
	.st5{fill:none;stroke:#3F3F3F;stroke-width:12;stroke-linecap:round;stroke-linejoin:round;}
	.st6{fill:url(#SVGID_1_);}
	.st7{fill:url(#SVGID_2_);}
	.st8{fill:#DBDBDB;}
	.st9{fill:#F4F4F4;}
	.st10{fill:none;stroke:#515151;stroke-miterlimit:10;}
	.st11{fill:#E8E8E8;}
	.st12{fill:#E53939;}
	.st13{fill:none;stroke:#000000;stroke-linecap:round;stroke-linejoin:round;}
	.st14{fill:#707070;}
	.st15{fill:#FFED48;}
	.st16{fill:#4F4F4F;}
	.st17{fill:#262300;}
	.st18{fill:#FFF5AE;}
	.st19{fill:none;}
	.st20{font-family:'Impact';}
	.st21{font-size:43px;}
	.st22{letter-spacing:4;}
	.st23{fill:#0000CE;}
	.st24{fill:#CC0027;}
	.st25{opacity:0.37;fill:#3A3A3A;}
	.st26{opacity:0.37;fill:#191919;}
	.st27{fill:#DDDDDD;}
	.st28{fill:url(#SVGID_3_);}
	.st29{fill:url(#SVGID_4_);}
	.st30{fill:#7F7F7F;}
	.st31{fill:url(#SVGID_5_);}
	.st32{fill:url(#SVGID_6_);}
	.st33{fill:#969696;}
	.st34{fill:url(#SVGID_7_);}
	.st35{fill:url(#SVGID_8_);}
	.st36{fill:url(#SVGID_9_);}
	.st37{fill:url(#SVGID_10_);}
</style>
<g id="Body">
	<g>
		<polygon class="st0" points="489,173 489,175 468,175 460.2,168 487.6,168   " />
		<polygon class="st1" points="487.6,168 482.9,173 464.9,173 460,168 464.7,156 482.9,156   " />
		<path d="M389.4,181.5l-0.7-4.6c-0.1-0.5,0.3-0.9,0.8-0.8l7.5,0.9c0.7,0.1,0.9,1,0.3,1.3l-6.8,3.7C390,182.2,389.5,182,389.4,181.5    z" />
		<path class="st2" d="M580.5,211.2l-0.7,9.6l-35.6-2.8c0,0-4.2-1.4-5.8-5.1c-1.8-4.4-3.8-7.1-7-10.7c-1.7-1.9-10.2-10.2-22.2-14.4    c-16.6-5.8-26-7-49.7-7.3c-16.4-0.2-20.9,0.6-33.2,1.8s-29.1,6.1-36.2,13.1c-5.6,5.5-5.8,8.5-6.7,15.2c-0.3,2.1-3.2,2.6-3.2,2.6    l-19.5,6.3l-15.8-14.8l-3-8.2l42.4-15.9c3.1-1.1,6.2-2.1,9.4-2.8l16.8-4.2c4.3-1,14.7-2.7,20-3.2l16-1.1    c2.9-0.2,11.2-0.3,14.1-0.1l15.7,0.9c4.6,0.3,17.4,3,21.8,4.1l8.2,2.4c7.1,2.8,21.9,9.2,29.9,13.2l32.3,20L580.5,211.2z" />
		<polygon class="st3" points="358.5,199 359,215.8 567.2,219.5 547.8,200.8 509.8,180.2 472.5,172.8 429.5,173 364.5,189.5   " />
		<path class="st2" d="M531.6,216h-3.3c-0.8,0-1.5-0.7-1.5-1.5v-6.6c0-0.8,0.7-1.5,1.5-1.5h3.3c2.4,0,4.4,2,4.4,4.4v0.8    C536,214,534,216,531.6,216z" />
		<path class="st2" d="M538.5,217.8h-5.7c-1.4,0-2.5-1.1-2.5-2.5v-3.8h9.3c0.9,0,1.6,0.7,1.6,1.6v1.8    C541.2,216.6,540,217.8,538.5,217.8z" />
		<line class="st4" x1="408.5" y1="180.8" x2="415.5" y2="210.2" />
		<line class="st5" x1="459.8" y1="175.6" x2="464" y2="210.6" />
		<line class="st4" x1="398.5" y1="180.8" x2="401.2" y2="210.2" />
		<polygon points="319.5,284 328.5,279 382,279 387.8,284.7 472.8,274.2 569.5,284.1 576.2,286.3 588.8,278.8 630.2,277.5     643.2,286.7 660.2,271 641.8,231.5 309.2,228.8 307,278.8   " />
		<linearGradient id="SVGID_1_" gradientUnits="userSpaceOnUse" x1="473.6801" y1="217.25" x2="473.6801" y2="284.9539">
			<stop offset="0" style="stop-color:#383737" />
			<stop offset="0.2483" style="stop-color:#333232" />
			<stop offset="0.5444" style="stop-color:#242424" />
			<stop offset="0.8636" style="stop-color:#0D0C0C" />
			<stop offset="1" style="stop-color:#000000" />
		</linearGradient>
		<path class="st6" d="M665,256.8c0-2.1,0.1-4.2-0.4-6.3c-0.2-1-0.5-2-0.9-3l-5.2-12.6l-2.6-3.3c-0.7-0.9-1.5-1.7-2.3-2.4    c-2.5-2.2-5.4-3.8-8.6-4.7l-36.3-9.9c-0.7-0.2-1.4-0.3-2.2-0.4l-26-3.1l-11.5-1.4l-31.7-21c-8-4-17.4-7.8-24.5-10.6l-14.3-4    c-4.4-1.1-17.3-3.8-21.8-4.1l-15.7-0.9c-2.9-0.2-11.2,0-14.1,0.1l-16,1.1c-5.3,0.5-15.7,2.2-20,3.2l-16.8,4.2    c-3.2,0.7-6.3,1.7-9.4,2.8l-42.4,15.9l-8.6,3.2l-40.3,10.5c-1.7,0.5-3.1,1.6-4,3.2l-4,7.7c-1.1,2-1.3,4.5-0.5,6.6l2.7,7.9    c0.2,0.6,0.1,1.3-0.2,1.9l-5.7,10c-0.7,1.1-0.9,2.4-0.8,3.7l2.4,19.1c0.3,2.2,1.8,4.1,3.8,4.9l8.7,3.5c2,0.8,4.1,1.4,6.2,1.9    l13.4,2.8c1.4,0.3,2.8,0.5,4.2,0.5c-0.8-2.9-1.2-5.9-1.2-9.1c0-20,16.6-36.2,36.8-35.4c18.9,0.7,34.1,16.6,34,35.5    c0,3.4-0.5,6.6-1.4,9.7l85.6,0.9l102.8,0.6c-1.2-3.6-1.8-7.4-1.8-11.3c0-20.4,17.2-36.7,37.8-35.3c17.2,1.2,31.3,14.9,32.8,32.1    c0.5,5.3-0.2,10.4-1.8,15l12.9-1.5c5.4-0.6,9-5.2,9-10.6l0.1-2.6l1.3-1.5l0.1-11.5L665,256.8z M370.9,197.2    c1.9-2.1,5.1-4.1,11-7.5c10.3-5.9,18.1-7.4,32.7-10.7c16.3-3.6,27.2-3.2,36.5-3.5c9.3-0.2,22.2,0,38,2.2    c15.8,2.2,41.5,14,48.8,18.5c5.2,3.2,14.3,10.9,19.7,16.8l-8.7-0.2l-176.1-4.8l-5.3-0.2C367.7,204.9,368.5,199.8,370.9,197.2z" />
		<linearGradient id="SVGID_2_" gradientUnits="userSpaceOnUse" x1="470.0916" y1="220.25" x2="470.0916" y2="167.5978">
			<stop offset="0" style="stop-color:#515151" />
			<stop offset="0.4779" style="stop-color:#565656" />
			<stop offset="1" style="stop-color:#636363" />
		</linearGradient>
		<path class="st7" d="M645,224.5c0,0-22.7-7.3-25.7-7.9s-10.6-2-10.6-2c-0.7-0.2-1.4-0.3-2.2-0.4l-26-3.1l-8.9-1.1    c-1.7-0.2-3.3-0.8-4.7-1.7l-29.5-19.5c-8-4-17.4-7.8-24.5-10.6l-14.3-4c-4.4-1.1-17.3-3.8-21.8-4.1l-15.7-0.9    c-2.9-0.2-11.2,0-14.1,0.1l-16,1.1c-5.3,0.5-15.7,2.2-20,3.2l-16.8,4.2c-3.2,0.7-6.3,1.7-9.4,2.8l-42.4,15.9l-8.6,3.2l-40.3,10.5    c-1.7,0.5-3.1,1.6-4,3.2l-4,7.7l7.7-1.6l4.5-3.8l5.2-0.3l6.5-0.2l59,2.3l96.2,7.3l98.7-0.7l90,5.7l1.8,1.8l-1.2-2.4    C651.1,227,648.2,225.4,645,224.5z M548.9,212.9l-176.1-4.8l-5.3-0.2c0.2-3,1-8.1,3.4-10.7c1.9-2.1,5.1-4.1,11-7.5    c10.3-5.9,18.1-7.4,32.7-10.7c16.3-3.6,27.2-3.2,36.5-3.5c9.3-0.2,22.2,0,38,2.2c15.8,2.2,41.5,14,48.8,18.5    c5.2,3.2,14.3,10.9,19.7,16.8L548.9,212.9z" />
		<path class="st8" d="M500.5,182.3c0,0,1.3-0.7,2.8-1s3.2,0.3,3.2,0.3l16.1,6.4l10.1,4.8l9.2,5.6l14.9,12.4c0,0-3.8-0.5-7.2-0.5    c-3.4,0-7.7,0.9-7.7,0.9s-8-11.4-13.8-16C517.1,186.4,500.5,182.3,500.5,182.3z" />
		<path class="st9" d="M664.8,250.5c-1-0.8-3.7-3-6.2-5.1c0,0,0,0,0,0s0,0,0,0c-0.5-0.4-1-0.8-1.5-1.3c-0.8-0.7-1.6-1.4-2.2-2    c-0.3-0.3-0.6-0.6-0.9-0.9c-0.9-0.9-1.8-2-2.8-3.1c-0.5-0.6-1.1-1.3-1.6-1.9c-0.4-0.5-0.8-1-1.2-1.5c0,0-0.1-0.1-0.1-0.1    c-0.2-0.2-0.3-0.4-0.5-0.6c0,0-0.1-0.1-0.1-0.1c-0.7-0.8-1.2-1.5-1.5-1.9c-0.1-0.1-0.1-0.2-0.2-0.2c0-0.1,0-0.2,0-0.2    c1.9-1,4.7-1.8,7.5-2.3c0.8,0.7,1.6,1.6,2.3,2.4l2.6,3.3l5.3,12.6C664.2,248.5,664.6,249.5,664.8,250.5z" />
		<path class="st10" d="M515.4,188.8c0,0,3.4,0.9,3.8-2.2" />
		<g>
			<path d="M457,175.6c8.6,0,19.4,0.5,32.2,2.2c15.8,2.2,41.5,14,48.8,18.5c5.2,3.2,14.3,10.9,19.7,16.8c2.2,2.5,3.8,4.6,4.1,6     c0.3,1.3,0.5,3,0.5,5.1c0.2,5.5-0.3,13.6-1,23c-1,12.2-5.4,32.7-5.4,32.7l-151.6-1.8c0,0-13.2-18.8-20.6-28.6     c-5.2-6.9-11.1-20.3-14.1-28.2c-0.5-1.3-0.9-2.7-1.3-4c-0.6-2.3-0.9-4.6-0.9-6.9c0,0,0-1,0.1-2.5c0.2-3,1-8.1,3.4-10.7     c1.9-2.1,5.1-4.1,11-7.5c10.3-5.9,18.1-7.4,32.7-10.7c16.3-3.6,27.2-3.2,36.5-3.5C453,175.6,454.9,175.6,457,175.6 M457,174.6     c-1.9,0-3.9,0-5.8,0.1c-1.3,0-2.7,0.1-4.1,0.1c-8.3,0.2-18.6,0.3-32.7,3.4l-1.6,0.4c-13.8,3-21.3,4.7-31.4,10.4     c-6.1,3.5-9.3,5.5-11.3,7.6c-2.6,2.9-3.4,8.3-3.7,11.3c-0.1,1.5-0.1,2.6-0.1,2.6c0.1,2.4,0.4,4.9,1,7.2c0.3,1.4,0.8,2.8,1.3,4.2     c2.8,7.2,8.9,21.2,14.3,28.4c7.2,9.7,20.4,28.4,20.6,28.6c0.2,0.3,0.5,0.4,0.8,0.4l151.6,1.8c0,0,0,0,0,0c0.5,0,0.9-0.3,1-0.8     c0-0.2,4.5-20.7,5.4-32.9c0.7-8.5,1.2-17.2,1-23.1c-0.1-2.3-0.3-4-0.6-5.3c-0.3-1.5-1.8-3.6-4.3-6.4c-5.1-5.7-14.4-13.6-19.9-17     c-7.4-4.6-33.1-16.5-49.2-18.7C478.3,175.3,467.4,174.6,457,174.6L457,174.6z" />
		</g>
		<path class="st9" d="M561.6,242.1c-0.1,1.7-0.2,3.4-0.4,5.1c-1,12.2-5.4,32.8-5.4,32.8l-151.6-1.8c0,0-13.2-18.8-20.6-28.6    c-2.8-3.8-5.9-9.5-8.6-15.2c-2.2-4.7-4.2-9.4-5.5-13c-0.5-1.3-0.9-2.7-1.3-4c19.4-0.7,56.1-0.6,96.3,0.1c58.2,1,96.4,6.5,97.8,6.7    C562.4,228.7,562.1,234.9,561.6,242.1z" />
		<path class="st11" d="M561.6,242.1c-0.1,1.7-0.2,3.4-0.4,5.1c-1,12.2-5.4,32.8-5.4,32.8l-151.6-1.8c0,0-13.2-18.8-20.6-28.6    c-2.8-3.8-5.9-9.5-8.6-15.2c2.6-0.2,52.6-1.5,88.9-0.3c37.3,1.2,97.6,7.8,97.6,7.8L561.6,242.1z" />
		<path class="st12" d="M296,226l-8.5,9.7l-2.4-7l-0.3-0.9c-0.3-1-0.5-2-0.4-3c0-1.3,0.4-2.5,1-3.7l7.7-1.6c0,0,1,0.3,1.9,1.5    c0.4,0.5,0.8,1.3,1.1,2.2c0.2,0.7,0.3,1.2,0.3,1.6C296.4,226.1,296,226,296,226z" />
		<path class="st13" d="M459.4,175.2c0,0,5.6,36.5,6.2,59c0.7,22.5-4.2,44.7-4.2,44.7" />
		<path class="st14" d="M516.4,188.8c0,1.1-0.6,2.1-1.4,2.1s0.1-0.9,0.1-2.1c0-1.1-0.9-2.1-0.1-2.1S516.4,187.7,516.4,188.8z" />
		<path class="st2" d="M539.6,216h-3.3c-0.8,0-1.5-0.7-1.5-1.5v-6.6c0-0.8,0.7-1.5,1.5-1.5h3.3c2.4,0,4.4,2,4.4,4.4v0.8    C544,214,542,216,539.6,216z" />
		<path class="st2" d="M546.5,217.8h-5.7c-1.4,0-2.5-1.1-2.5-2.5v-3.8h9.3c0.9,0,1.6,0.7,1.6,1.6v1.8    C549.2,216.6,548,217.8,546.5,217.8z" />
		<path class="st15" d="M296.3,224.9c-1.5,0.2-3.2,0.6-5,1.3c-1.8,0.6-4.2,1.7-6.2,2.6l-0.3-0.9c-0.3-1-0.5-2-0.4-3    c1.2-0.7,2.9-1.7,5-2.4c2-0.6,3.9-1.1,5.5-1.4c0.4,0.5,0.8,1.3,1.1,2.2C296.2,224,296.3,224.5,296.3,224.9z" />
		<path class="st16" d="M489.6,233.2h-13.7c-1.3,0-2.4-1.1-2.4-2.4v-1c0-1.3,1.1-2.4,2.4-2.4h13.7c1.3,0,2.4,1.1,2.4,2.4v1    C492,232.1,490.9,233.2,489.6,233.2z" />
		<path class="st17" d="M487.1,231.6h-8.8c-0.7,0-1.3-0.6-1.3-1.3l0,0c0-0.7,0.6-1.3,1.3-1.3h8.8c0.7,0,1.3,0.6,1.3,1.3l0,0    C488.4,231,487.8,231.6,487.1,231.6z" />
		<path class="st16" d="M397.6,233.2h-13.7c-1.3,0-2.4-1.1-2.4-2.4v-1c0-1.3,1.1-2.4,2.4-2.4h13.7c1.3,0,2.4,1.1,2.4,2.4v1    C400,232.1,398.9,233.2,397.6,233.2z" />
		<path class="st17" d="M395.1,231.6h-8.8c-0.7,0-1.3-0.6-1.3-1.3l0,0c0-0.7,0.6-1.3,1.3-1.3h8.8c0.7,0,1.3,0.6,1.3,1.3l0,0    C396.4,231,395.8,231.6,395.1,231.6z" />
		<path class="st15" d="M650.8,234.2c-0.8,0-1.7,0.1-2.4,0.3c0,0,0,0.1,0.1,0.1c0.4,0.5,0.8,1,1.2,1.5c0.5,0.6,1,1.3,1.6,1.9    c1,1.1,1.9,2.2,2.8,3.1c0.3,0.3,0.6,0.6,0.9,0.9c0.6,0.6,1.4,1.3,2.2,2c0.5,0.4,1,0.8,1.5,1.3c0,0,0,0,0,0s0,0,0,0    c0.3-0.9,0.5-1.8,0.5-2.8C659.1,238,655.4,234.2,650.8,234.2z" />
		<path class="st18" d="M657.3,242.6c0,0.5-0.1,1-0.2,1.5c-0.8-0.7-1.6-1.4-2.2-2c-0.3-0.3-0.6-0.6-0.9-0.9c-0.9-0.9-1.8-2-2.8-3.1    c-0.5-0.6-1.1-1.3-1.6-1.9c0.4-0.1,0.7-0.1,1.1-0.1C654.4,236.1,657.3,239,657.3,242.6z" />
		<rect x="406.5" y="239.8" class="st19" width="287.3" height="85" />
		<text transform="matrix(1 0 0 1 406.5002 273.8424)" class="st20 st21 st22">POLICE</text>
		<polygon class="st23" points="487.6,168 474,168 474,156 482.9,156   " />
		<polygon class="st24" points="474,156 474,168 460,168 464.7,156   " />
		<path class="st25" d="M476.7,164.4c0,1.1-0.7,2.1-1.7,2.5v1.1h-2v-1c-1-0.4-1.8-1.4-1.8-2.5c0-1.5,1.2-2.7,2.7-2.7    C475.5,161.7,476.7,162.9,476.7,164.4z" />
		<ellipse class="st26" cx="473.1" cy="164.4" rx="0.3" ry="0.9" />
		<ellipse class="st26" cx="475.1" cy="164.4" rx="0.3" ry="0.9" />
	</g>
	<path class="st27" d="M515.2,188.8c0,0.9-0.2,2-0.5,2s-0.3-1.2-0.3-2.1s0.1-1.9,0.4-1.9S515.2,187.9,515.2,188.8z" />
</g>
<g id="BackTire">
	<g>
		<g>
			<radialGradient id="SVGID_3_" cx="353.75" cy="274.915" r="21.5398" gradientUnits="userSpaceOnUse">
				<stop offset="0.5513" style="stop-color:#B0B0B0" />
				<stop offset="0.5652" style="stop-color:#B8B8B8" />
				<stop offset="0.5988" style="stop-color:#C3C3C3" />
				<stop offset="0.6462" style="stop-color:#CACACA" />
				<stop offset="0.7776" style="stop-color:#CCCCCC" />
				<stop offset="0.8435" style="stop-color:#C8C8C8" />
				<stop offset="0.9019" style="stop-color:#BEBEBE" />
				<stop offset="0.9459" style="stop-color:#B0B0B0" />
			</radialGradient>
			<path class="st28" d="M375.3,274.9c0,11.9-9.6,21.5-21.5,21.5s-21.5-9.6-21.5-21.5c0-11.9,9.6-21.5,21.5-21.5     S375.3,263,375.3,274.9z" />
		</g>
		<g>
			<radialGradient id="SVGID_4_" cx="353.75" cy="274.915" r="13.0833" gradientUnits="userSpaceOnUse">
				<stop offset="0" style="stop-color:#AFAFAF" />
				<stop offset="0.5942" style="stop-color:#ADADAD" />
				<stop offset="0.808" style="stop-color:#A6A6A6" />
				<stop offset="0.9601" style="stop-color:#9B9B9B" />
				<stop offset="1" style="stop-color:#969696" />
			</radialGradient>
			<path class="st29" d="M365.8,274.9c0,6.6-5.4,12-12,12s-12-5.4-12-12c0-6.6,5.4-12,12-12S365.8,268.3,365.8,274.9z" />
		</g>
		<polygon class="st30" points="354.5,273.5 353,273.5 351.9,253 355.6,253   " />
		<polygon class="st30" points="353.3,273.4 352.2,274.4 336.9,260.7 339.6,258.1   " />
		<polygon class="st30" points="352.3,274.2 352.3,275.7 331.8,276.8 331.8,273   " />
		<polygon class="st30" points="352.2,275.4 353.3,276.4 339.6,291.8 336.9,289.1   " />
		<polygon class="st30" points="353,276.3 354.5,276.3 355.6,296.9 351.9,296.9   " />
		<polygon class="st30" points="354.2,276.4 355.3,275.4 370.6,289.1 367.9,291.8   " />
		<polygon class="st30" points="355.2,275.7 355.2,274.2 375.7,273 375.7,276.8   " />
		<polygon class="st30" points="355.3,274.4 354.2,273.4 367.9,258.1 370.6,260.7   " />
		<g>
			<radialGradient id="SVGID_5_" cx="353.75" cy="274.915" r="29.9175" gradientUnits="userSpaceOnUse">
				<stop offset="0.6942" style="stop-color:#000000" />
				<stop offset="0.7285" style="stop-color:#111111" />
				<stop offset="0.7782" style="stop-color:#222222" />
				<stop offset="0.8316" style="stop-color:#2D2D2D" />
				<stop offset="0.895" style="stop-color:#303030" />
				<stop offset="0.9266" style="stop-color:#2C2C2C" />
				<stop offset="0.9557" style="stop-color:#212121" />
				<stop offset="0.9836" style="stop-color:#0F0F0F" />
				<stop offset="1" style="stop-color:#000000" />
			</radialGradient>
			<path class="st31" d="M353.8,254c11.5,0,20.9,9.4,20.9,20.9c0,11.5-9.4,20.9-20.9,20.9s-20.9-9.4-20.9-20.9     C332.8,263.4,342.2,254,353.8,254 M353.8,245c-16.5,0-29.9,13.4-29.9,29.9c0,16.5,13.4,29.9,29.9,29.9s29.9-13.4,29.9-29.9     C383.7,258.4,370.3,245,353.8,245L353.8,245z" />
		</g>
		<g>
			<radialGradient id="SVGID_6_" cx="353.75" cy="274.915" r="7.4156" gradientUnits="userSpaceOnUse">
				<stop offset="0" style="stop-color:#969696" />
				<stop offset="0.1081" style="stop-color:#8C8C8C" />
				<stop offset="0.299" style="stop-color:#828282" />
				<stop offset="0.531" style="stop-color:#7F7F7F" />
				<stop offset="0.774" style="stop-color:#7B7B7B" />
				<stop offset="1" style="stop-color:#707070" />
			</radialGradient>
			<path class="st32" d="M361.2,274.9c0,4.1-3.3,7.4-7.4,7.4s-7.4-3.3-7.4-7.4c0-4.1,3.3-7.4,7.4-7.4S361.2,270.8,361.2,274.9z" />
		</g>
		<polygon class="st33" points="355.5,272.5 354.7,272.2 354.5,271.5 354.8,270.7 355.5,270.5 356.3,270.8 356.5,271.5 356.2,272.3       " />
		<polygon class="st33" points="352,272.1 351.5,271.4 351.7,270.7 352.4,270.2 353.2,270.4 353.6,271.1 353.4,271.8 352.7,272.3       " />
		<polygon class="st33" points="351.3,272.8 351.2,273.7 350.7,274.1 349.8,274.1 349.4,273.5 349.4,272.7 350,272.2 350.8,272.3       " />
		<polygon class="st33" points="351,275.7 351,276.5 350.5,277 349.7,277 349.2,276.5 349.2,275.7 349.7,275.1 350.5,275.1   " />
		<polygon class="st33" points="352.8,277.6 353,278.4 352.7,279.1 351.9,279.4 351.3,279 351,278.2 351.3,277.6 352.1,277.3   " />
		<polygon class="st33" points="354,278.1 354.6,277.6 355.4,277.6 355.9,278.3 355.9,279 355.2,279.6 354.5,279.5 353.9,278.9       " />
		<polygon class="st33" points="357.1,275.6 357.9,275.9 358.2,276.6 357.9,277.4 357.2,277.7 356.4,277.4 356.1,276.7 356.4,275.9       " />
		<polygon class="st33" points="357.3,272.7 358.1,273 358.4,273.6 358.2,274.4 357.5,274.8 356.7,274.5 356.4,273.8 356.6,273       " />
	</g>
</g>
<g id="FrontTire">
	<g>
		<g>
			<radialGradient id="SVGID_7_" cx="609.75" cy="274.915" r="21.5398" gradientUnits="userSpaceOnUse">
				<stop offset="0.5513" style="stop-color:#B0B0B0" />
				<stop offset="0.5652" style="stop-color:#B8B8B8" />
				<stop offset="0.5988" style="stop-color:#C3C3C3" />
				<stop offset="0.6462" style="stop-color:#CACACA" />
				<stop offset="0.7776" style="stop-color:#CCCCCC" />
				<stop offset="0.8435" style="stop-color:#C8C8C8" />
				<stop offset="0.9019" style="stop-color:#BEBEBE" />
				<stop offset="0.9459" style="stop-color:#B0B0B0" />
			</radialGradient>
			<path class="st34" d="M631.3,274.9c0,11.9-9.6,21.5-21.5,21.5s-21.5-9.6-21.5-21.5c0-11.9,9.6-21.5,21.5-21.5     S631.3,263,631.3,274.9z" />
		</g>
		<g>
			<radialGradient id="SVGID_8_" cx="609.75" cy="274.915" r="13.0833" gradientUnits="userSpaceOnUse">
				<stop offset="0" style="stop-color:#AFAFAF" />
				<stop offset="0.5942" style="stop-color:#ADADAD" />
				<stop offset="0.808" style="stop-color:#A6A6A6" />
				<stop offset="0.9601" style="stop-color:#9B9B9B" />
				<stop offset="1" style="stop-color:#969696" />
			</radialGradient>
			<path class="st35" d="M621.8,274.9c0,6.6-5.4,12-12,12s-12-5.4-12-12c0-6.6,5.4-12,12-12S621.8,268.3,621.8,274.9z" />
		</g>
		<polygon class="st30" points="610.5,273.5 609,273.5 607.9,253 611.6,253   " />
		<polygon class="st30" points="609.3,273.4 608.2,274.4 592.9,260.7 595.6,258.1   " />
		<polygon class="st30" points="608.3,274.2 608.3,275.7 587.8,276.8 587.8,273   " />
		<polygon class="st30" points="608.2,275.4 609.3,276.4 595.6,291.8 592.9,289.1   " />
		<polygon class="st30" points="609,276.3 610.5,276.3 611.6,296.9 607.9,296.9   " />
		<polygon class="st30" points="610.2,276.4 611.3,275.4 626.6,289.1 623.9,291.8   " />
		<polygon class="st30" points="611.2,275.7 611.2,274.2 631.7,273 631.7,276.8   " />
		<polygon class="st30" points="611.3,274.4 610.2,273.4 623.9,258.1 626.6,260.7   " />
		<g>
			<radialGradient id="SVGID_9_" cx="609.75" cy="274.915" r="29.9175" gradientUnits="userSpaceOnUse">
				<stop offset="0.6942" style="stop-color:#000000" />
				<stop offset="0.7285" style="stop-color:#111111" />
				<stop offset="0.7782" style="stop-color:#222222" />
				<stop offset="0.8316" style="stop-color:#2D2D2D" />
				<stop offset="0.895" style="stop-color:#303030" />
				<stop offset="0.9266" style="stop-color:#2C2C2C" />
				<stop offset="0.9557" style="stop-color:#212121" />
				<stop offset="0.9836" style="stop-color:#0F0F0F" />
				<stop offset="1" style="stop-color:#000000" />
			</radialGradient>
			<path class="st36" d="M609.8,254c11.5,0,20.9,9.4,20.9,20.9c0,11.5-9.4,20.9-20.9,20.9s-20.9-9.4-20.9-20.9     C588.8,263.4,598.2,254,609.8,254 M609.8,245c-16.5,0-29.9,13.4-29.9,29.9c0,16.5,13.4,29.9,29.9,29.9s29.9-13.4,29.9-29.9     C639.7,258.4,626.3,245,609.8,245L609.8,245z" />
		</g>
		<g>
			<radialGradient id="SVGID_10_" cx="609.75" cy="274.915" r="7.4156" gradientUnits="userSpaceOnUse">
				<stop offset="0" style="stop-color:#969696" />
				<stop offset="0.1081" style="stop-color:#8C8C8C" />
				<stop offset="0.299" style="stop-color:#828282" />
				<stop offset="0.531" style="stop-color:#7F7F7F" />
				<stop offset="0.774" style="stop-color:#7B7B7B" />
				<stop offset="1" style="stop-color:#707070" />
			</radialGradient>
			<path class="st37" d="M617.2,274.9c0,4.1-3.3,7.4-7.4,7.4s-7.4-3.3-7.4-7.4c0-4.1,3.3-7.4,7.4-7.4S617.2,270.8,617.2,274.9z" />
		</g>
		<polygon class="st33" points="611.5,272.5 610.7,272.2 610.5,271.5 610.8,270.7 611.5,270.5 612.3,270.8 612.5,271.5 612.2,272.3       " />
		<polygon class="st33" points="608,272.1 607.5,271.4 607.7,270.7 608.4,270.2 609.2,270.4 609.6,271.1 609.4,271.8 608.7,272.3       " />
		<polygon class="st33" points="607.3,272.8 607.2,273.7 606.7,274.1 605.8,274.1 605.4,273.5 605.4,272.7 606,272.2 606.8,272.3       " />
		<polygon class="st33" points="607,275.7 607,276.5 606.5,277 605.7,277 605.2,276.5 605.2,275.7 605.7,275.1 606.5,275.1   " />
		<polygon class="st33" points="608.8,277.6 609,278.4 608.7,279.1 607.9,279.4 607.3,279 607,278.2 607.3,277.6 608.1,277.3   " />
		<polygon class="st33" points="610,278.1 610.6,277.6 611.4,277.6 611.9,278.3 611.9,279 611.2,279.6 610.5,279.5 609.9,278.9       " />
		<polygon class="st33" points="613.1,275.6 613.9,275.9 614.2,276.6 613.9,277.4 613.2,277.7 612.4,277.4 612.1,276.7 612.4,275.9       " />
		<polygon class="st33" points="613.3,272.7 614.1,273 614.4,273.6 614.2,274.4 613.5,274.8 612.7,274.5 612.4,273.8 612.6,273       " />
	</g>
</g>
</svg>
