<?xml version="1.0" encoding="UTF-8"?>
<!-- Generator: Adobe Illustrator 18.0.0, SVG Export Plug-In . SVG Version: 6.00 Build 0)  --><svg xmlns="http://www.w3.org/2000/svg" xmlns:xlink="http://www.w3.org/1999/xlink" version="1.1" id="Layer_1" x="0px" y="0px" viewBox="0 0 35 35" enable-background="new 0 0 35 35" xml:space="preserve">
<g>
	<path fill="#077E9A" d="M11,5H4.5C3.7,5,3,5.7,3,6.5S3.7,8,4.5,8H11" />
	<path fill="#077E9A" d="M17,8h12.5C30.3,8,31,7.3,31,6.5S30.3,5,29.5,5H17" />
</g>
<path opacity="0.85" fill="#0A0D1E" d="M29,23v-6.6c0-1.6-1.6-2.9-3.2-2.9c-0.4,0-0.9,0.1-1.2,0.2c-0.3-1.2-1.5-2.2-2.9-2.2  c-0.4,0-0.7,0.1-1.1,0.2c-0.4-1.2-1.5-2.1-2.8-2.1c-0.3,0-0.8,0.1-0.8,0.2v-5C17,3.3,15.6,2,14,2s-3,1.3-3,2.8v13.9l-1.1-1.3  c-1-1.2-2.8-1.4-4-0.5c-1.3,1-1.5,2.7-0.5,4L9,25c0.9,0.9,2.7,4.6,4.5,6.2c1.6,1.5,3.9,1.9,6.1,1.8c0,0,0.1,0,0.1,0  c3.2-0.1,5.7-1,7.3-2.9C29.3,27.2,29,24,29,23z M25.4,28.7C24.1,30.3,21.9,31,19,31v0c-2.2,0.1-3.5-0.4-4.9-2  c-1.3-1.5-1.9-3-3.3-4.8C10.4,23.7,9.7,23,9.7,23l-2.8-3.3c-0.4-0.4-0.3-1.1,0.2-1.4s1.1-0.3,1.5,0.2l2.8,3.3  c0.2,0.3,0.6,0.4,1.1,0.3c0.4-0.1,0.5-0.5,0.5-0.8V4.8c0-0.6,0.4-1,1-1s1,0.5,1,1V14c0,0.5,0.5,0.9,1,0.9s1-0.4,1-0.9v-2  c0-0.3,0.5-0.5,0.9-0.5c0.6,0,1.1,0.5,1.1,1.1c0,0,0,1.3,0,1.4v2.2c0,0.5,0.5,0.9,1,0.9s1-0.4,1-0.9V14c0-0.3,0.5-0.6,0.9-0.6  c0.6,0,1.1,0.5,1.1,1.1v3.7c0,0.5,0.5,0.9,1,0.9s1-0.4,1-0.9v-2c0-0.5,0.4-1,1-1s1,0.5,1,1V23C27,23,27.2,26.5,25.4,28.7z" />
</svg>
