<?xml version="1.0" encoding="UTF-8"?>
<!-- Generator: Adobe Illustrator 18.0.0, SVG Export Plug-In . SVG Version: 6.00 Build 0)  --><svg xmlns="http://www.w3.org/2000/svg" xmlns:xlink="http://www.w3.org/1999/xlink" version="1.1" id="Layer_1" x="0px" y="0px" viewBox="0 0 35 35" enable-background="new 0 0 35 35" xml:space="preserve">
<path opacity="0.85" fill="#111320" enable-background="new    " d="M31,12c0-0.6-0.4-1-1-1H2c-0.6,0-1,0.4-1,1v17c0,0.6,0.4,1,1,1  h28c0.6,0,1-0.4,1-1V12z M29,28H3V13h26V28z" />
<path opacity="0.85" fill="#111320" enable-background="new    " d="M34,6H6C5.4,6,5,6.7,5,7.2V9h2V8h26v17h1c0.5,0,1-0.2,1-0.8v-17  C35,6.7,34.5,6,34,6z" />
<polygon fill="#077E9A" points="29,21.6 23.6,16.1 16,25 10,20 3,26 3,28 29,28 " />
</svg>
