<?xml version="1.0" encoding="UTF-8"?>
<!-- Generator: Adobe Illustrator 18.0.0, SVG Export Plug-In . SVG Version: 6.00 Build 0)  --><svg xmlns="http://www.w3.org/2000/svg" xmlns:xlink="http://www.w3.org/1999/xlink" version="1.1" id="Layer_1" x="0px" y="0px" viewBox="0 0 35 35" enable-background="new 0 0 35 35" xml:space="preserve">
<g opacity="0.85" enable-background="new    ">
	<path fill="#0A0D1E" d="M20.6,25c-1-0.6-1.6-1.3-2.3-1.9C16.7,21.6,15.1,20,12,20c-3.2,0-4.7,1.6-6.4,3.1c-0.8,0.6-1.3,1.3-2.2,1.9   C3.1,25.4,3,25.6,3,26c0,0.5,0.2,0.7,0.4,1c0.8,0.5,1.4,1.2,2,1.8C7,30.3,8.8,32,12.1,32s5-1.6,6.6-3.2c0.6-0.5,1.2-1.2,2-1.8   c0.2-0.4,0.3-0.6,0.3-1C21,25.5,20.8,25.3,20.6,25z M17.4,27.3c-1.6,1.4-2.7,2.6-5.2,2.6c-2.7,0-3.9-1.2-5.3-2.6   C6.4,27,6,26.5,5.7,26.1c0.4-0.5,0.8-0.8,1.6-1.3c1.8-1.6,2.7-2.6,5.2-2.6c2.2,0,3.3,1.2,4.9,2.6c0.3,0.4,0.9,1,1.3,1.3   C18.2,26.5,17.8,27,17.4,27.3z" />
	<circle fill="#0A0D1E" cx="12" cy="26" r="2.5" />
</g>
<path fill="#007D99" d="M14,12.9c2.1-0.5,3.5-1.8,3.9-3.9c0.1,1,0.6,1.8,1.4,2.6C20,12.3,21,12.8,22,13c-1,0.1-1.9,0.6-2.6,1.4  c-0.7,0.7-1.2,1.6-1.4,2.6C17.5,14.7,16.1,13.3,14,12.9z" />
<path fill="#007D99" d="M20,18c3.2-0.7,5.2-2.7,6-6c0.2,1.5,0.9,2.8,2,3.9c1.1,1,2.5,1.8,4,2.1c-1.5,0.2-2.8,0.9-4,2.1  c-1.1,1-1.9,2.4-2.1,3.9C25.2,20.7,23.2,18.7,20,18z" />
<path fill="#007D99" d="M20,6c1.6-0.3,2.6-1.4,2.9-3c0.1,0.8,0.5,1.4,1.1,2c0.6,0.6,1.2,0.9,2,1c-0.8,0.1-1.4,0.5-2,1  c-0.6,0.6-0.9,1.2-1.1,2C22.7,7.4,21.6,6.3,20,6z" />
</svg>
