<?xml version="1.0" encoding="UTF-8"?>
<svg xmlns="http://www.w3.org/2000/svg" xmlns:xlink="http://www.w3.org/1999/xlink" xmlns:sketch="http://www.bohemiancoding.com/sketch/ns" width="35px" height="35px" viewBox="0 0 35 35" version="1.1">
    <!-- Generator: Sketch 3.3.3 (12072) - http://www.bohemiancoding.com/sketch -->
    <title>Artboard 1</title>
    <desc>Created with Sketch.</desc>
    <defs />
    <g id="Page-1" stroke="none" stroke-width="1" fill="none" fill-rule="evenodd" sketch:type="MSPage">
        <g id="Artboard-1" sketch:type="MSArtboardGroup">
            <g id="audio" sketch:type="MSLayerGroup" transform="translate(0.000000, 5.000000)">
                <g id="Page-1" sketch:type="MSShapeGroup">
                    <g id="Callout-Audio">
                        <g id="Group" transform="translate(8.000000, 8.000000)" fill="#007D99">
                            <path d="M0,3 L0,8 L4.4,8 L8,11.3 L8,8 L8,3.4 L8,0.3 L4.5,3 L0,3 L0,3 Z" id="Shape" />
                            <path d="M11.2,3.7 L10.3,4.5 C11,5.2 11,6.3 10.3,7 L11.2,7.9 C12.4,6.8 12.4,4.9 11.2,3.7 L11.2,3.7 L11.2,3.7 Z M12.9,2 L12,2.8 C13.6,4.4 13.6,7.1 12,8.7 L12.9,9.5 C15,7.5 15.1,4.1 12.9,2 L12.9,2 L12.9,2 Z M14.6,0.3 L13.7,1.1 C16.3,3.7 16.3,7.8 13.7,10.4 L14.6,11.2 C17.7,8.3 17.7,3.4 14.6,0.3 L14.6,0.3 L14.6,0.3 Z" id="Shape_1_" />
                        </g>
                        <path d="M33,5 L33,23 L2,23 L2,5 L33,5 L33,5 Z M34,0 L1,0 C0.5,0 0,0.4 0,1 L0,24 C0,24.6 0.5,25 1,25 L34,25 C34.5,25 35,24.6 35,24 L35,1 C35,0.4 34.5,0 34,0 L34,0 L34,0 Z" id="Shape_2_" opacity="0.85" fill="#0A0D1E" />
                    </g>
                </g>
            </g>
        </g>
    </g>
</svg>
