<?xml version="1.0" encoding="UTF-8"?>
<svg xmlns="http://www.w3.org/2000/svg" xmlns:xlink="http://www.w3.org/1999/xlink" version="1.1" id="Layer_1" x="0px" y="0px" width="22px" height="22px" viewBox="0 0 22 22" enable-background="new 0 0 22 22" xml:space="preserve">
<path fill="#00346D" d="M0.153,10.741c0-1.176,0.242-2.28,0.727-3.311h2.935c1.353-0.677,2.897-1.267,4.635-1.77l3.784,0.343  l0.563,0.521l5.591,0.123c1.286,0,2.184,0.115,2.694,0.343c0.51,0.229,0.766,0.626,0.766,1.193c0,0.485-0.268,0.85-0.803,1.097  c-0.534,0.247-1.332,0.371-2.393,0.371l-4.937,0.054l-0.494,0.116c0.229,0.137,0.399,0.303,0.515,0.5  c0.113,0.195,0.172,0.426,0.172,0.69c0,0.355-0.102,0.653-0.302,0.888c-0.202,0.238-0.503,0.412-0.905,0.521  c0.101,0.256,0.151,0.479,0.151,0.672c0,0.438-0.129,0.783-0.386,1.033c-0.258,0.252-0.644,0.414-1.158,0.488  c0.006,0.1,0.009,0.172,0.009,0.219c0,0.986-0.683,1.48-2.046,1.48l-0.478-0.027l-0.507-0.219C7.71,16.25,7.17,16.34,6.668,16.34  c-0.174,0-0.448-0.021-0.823-0.068c-0.997-0.461-2.021-1.264-3.072-2.414H0.813C0.372,12.822,0.153,11.781,0.153,10.741z   M3.128,13.148c0.823,1.057,1.764,1.898,2.825,2.521c0.228,0.037,0.388,0.057,0.48,0.057c0.137,0,0.438-0.033,0.905-0.096  l-1.713-0.729c0.228-0.543,0.599-1.029,1.11-1.453l-0.85-0.383c0.502-0.852,1.056-1.373,1.659-1.564l-0.959-0.411  c0.621-1.216,1.458-1.824,2.509-1.824c0.228,0,0.461,0.032,0.7,0.096c0.238,0.064,0.479,0.165,0.727,0.302l1.245-0.015  c-0.462-0.172-0.962-0.471-1.505-0.89c-0.74,0.393-1.522,0.589-2.345,0.589L7.6,9.322L7.573,8.65l0.233,0.015  c0.896,0,1.759-0.238,2.592-0.713c0.774,0.813,1.554,1.221,2.337,1.221c0.51,0,0.965-0.179,1.366-0.535l-2.127-1.975L8.492,6.362  C7.706,6.591,6.152,7.17,3.83,8.103H1.334c-0.321,0.848-0.48,1.701-0.48,2.558c0,0.811,0.141,1.64,0.425,2.488H3.128L3.128,13.148z   M8.832,15.631l0.535,0.012c0.85,0,1.275-0.342,1.275-1.027h-1.33l-1.838-0.822c-0.393,0.252-0.69,0.512-0.891,0.781L8.832,15.631z   M9.546,13.939l1.241,0.031c0.45,0,0.789-0.072,1.013-0.219c0.226-0.148,0.339-0.361,0.339-0.646c0-0.162-0.07-0.355-0.209-0.574  l-2.013,0.014l-1.426-0.631c-0.75,0.1-1.285,0.391-1.604,0.873L9.546,13.939z M10.135,11.873l1.447,0.014  c0.537,0,0.941-0.074,1.215-0.227s0.41-0.372,0.41-0.664c0-0.21-0.094-0.368-0.28-0.474c-0.187-0.105-0.466-0.158-0.839-0.158  h-1.761c-0.21-0.141-0.417-0.248-0.624-0.318c-0.206-0.071-0.41-0.106-0.61-0.106c-0.694,0-1.216,0.292-1.563,0.877L10.135,11.873z   M15.072,8.65c-0.129,0.147-0.238,0.261-0.329,0.343l3.113-0.014c1.105,0,1.935-0.066,2.488-0.199  c0.553-0.132,0.829-0.327,0.829-0.583c0-0.585-0.891-0.878-2.673-0.878l-5.019-0.123L15.072,8.65z" />
</svg>
