<?xml version="1.0" encoding="UTF-8"?>
<svg xmlns="http://www.w3.org/2000/svg" width="330" height="330">
 <!-- Generator: Sketch 3.4.4 (17249) - http://www.bohemiancoding.com/sketch -->

 <title>Group</title>
 <desc>Created with Sketch.</desc>
 <g>
  <title>background</title>
  <rect x="-1" y="-1" width="332" height="332" id="canvas_background" fill="none" />
 </g>
 <g>
  <title>Layer 1</title>
  <g id="Page-1" fill="none" fill-rule="evenodd">
   <g id="assets">
    <g id="Group">
     <path d="m60.423126,228.888l135.039993,-107.448013c2.373749,-2.375984 6.330002,-2.375984 8.703751,0l61.981262,62.040009c2.109985,2.112 3.428741,5.016006 3.428741,8.184006l0,32.208008c0,2.903961 -2.373749,5.279999 -5.274994,5.279999l-203.878754,0l0,-0.264008z" id="Shape" />
     <path d="m269.31311,223.608002l0,-32.207993c0,-1.584 -0.527496,-3.432007 -1.054993,-5.016006l-1.054993,-1.584015c-0.263733,-0.527985 -0.79126,-1.056 -1.054993,-1.319992l-61.981262,-62.040009c-2.373749,-2.375984 -6.330002,-2.375984 -8.703751,0l-133.193745,106.128021c1.055,0.791992 2.110004,1.319992 3.428753,1.319992l198.339989,0c2.901276,0 5.274994,-2.376022 5.274994,-5.279999l0,0z" id="Shape" fill="#E7E7E9" />
     <path d="m91.018127,156.023987l-26.638748,26.928009c-2.373753,2.376007 -3.956253,5.808014 -3.956253,9.504013l0,31.416c0,2.903961 2.373749,5.279999 5.274994,5.279999l100.488754,0l-66.465012,-73.128021c-2.373749,-2.376007 -6.330002,-2.376007 -8.703751,0l0,0l0.000015,0z" id="Shape" fill="#DDDDDF" />
     <ellipse id="Oval" fill="#DDDDDF" cx="123.195622" cy="116.159992" rx="15.2975" ry="15.312" />
     <path d="m200.474365,119.592003l27.16626,109.295998l36.661255,0c2.901245,0 5.274994,-2.376022 5.274994,-5.279999l0,-32.207993c0,-3.168015 -1.318756,-6.072006 -3.428741,-8.184006l-47.475006,-47.52002l-14.770004,-14.783997c-0.791245,-0.528 -2.110001,-1.056 -3.428757,-1.319984l0,0z" id="Shape" fill="#DDDDDF" />
    </g>
   </g>
  </g>
 </g>
</svg>
