<?xml version="1.0" encoding="utf-8"?>
<!-- Generator: Adobe Illustrator 21.0.0, SVG Export Plug-In . SVG Version: 6.00 Build 0)  -->
<svg version="1.1" id="Layer_1" xmlns="http://www.w3.org/2000/svg" xmlns:xlink="http://www.w3.org/1999/xlink" x="0px" y="0px"
	 viewBox="0 0 455.5 397" style="enable-background:new 0 0 455.5 397;" xml:space="preserve">
<style type="text/css">
	.st0{fill:#29ABE2;stroke:#000000;stroke-miterlimit:10;}
	.st1{fill:#CCCCCC;stroke:#000000;stroke-miterlimit:10;}
	.st2{fill:url(#XMLID_3_);stroke:#000000;stroke-miterlimit:10;}
	.st3{fill:url(#XMLID_4_);}
	.st4{fill:#821E25;stroke:#3A3A3A;stroke-miterlimit:10;}
	.st5{fill:#CAD82B;stroke:#3A3A3A;stroke-miterlimit:10;}
	.st6{fill:#ABC645;stroke:#3A3A3A;stroke-miterlimit:10;}
	.st7{fill:#7AAEA2;stroke:#3A3A3A;stroke-miterlimit:10;}
	.st8{fill:#4495CC;stroke:#3A3A3A;stroke-miterlimit:10;}
	.st9{fill:#317ABE;stroke:#3A3A3A;stroke-miterlimit:10;}
	.st10{fill:#3E6DB5;stroke:#3A3A3A;stroke-miterlimit:10;}
	.st11{fill:#5E4FA2;stroke:#3A3A3A;stroke-miterlimit:10;}
	.st12{fill:#ED1C24;stroke:#3A3A3A;stroke-miterlimit:10;}
	.st13{fill:#EE7821;stroke:#3A3A3A;stroke-miterlimit:10;}
	.st14{fill:#F49C1E;stroke:#3A3A3A;stroke-miterlimit:10;}
	.st15{fill:#F2BB18;stroke:#3A3A3A;stroke-miterlimit:10;}
	.st16{fill:#F7DC09;stroke:#3A3A3A;stroke-miterlimit:10;}
	.st17{fill:#F6ED12;stroke:#3A3A3A;stroke-miterlimit:10;}
	.st18{fill:#FFFFFF;}
	.st19{font-family:'Helvetica';}
	.st20{font-size:20px;}
	.st21{fill:none;}
	.st22{fill:#333333;}
	.st23{font-family:'ArialMT';}
	.st24{font-size:18px;}
	.st25{fill:#212121;}
	.st26{font-size:53px;}
</style>
<path id="XMLID_46_" class="st0" d="M438,55.6v21c0-25.8-20-47.1-45.7-47.1H70c-25.9,0-47,21.5-47,47.4v-21c0-26,21.1-47.4,47-47.4
	h322.3C418,8.5,438,29.8,438,55.6z"/>
<path id="XMLID_41_" class="st1" d="M438,76.6v288.9H23V76.9C23,51,44.1,29.5,70,29.5h322.3C418,29.5,438,50.8,438,76.6z"/>
<linearGradient id="XMLID_3_" gradientUnits="userSpaceOnUse" x1="230.5" y1="386" x2="230.5" y2="29.8975">
	<stop  offset="0" style="stop-color:#ABABAB"/>
	<stop  offset="3.608635e-02" style="stop-color:#B8B8B8"/>
	<stop  offset="9.253038e-02" style="stop-color:#C3C3C3"/>
	<stop  offset="0.172" style="stop-color:#CACACA"/>
	<stop  offset="0.3926" style="stop-color:#CCCCCC"/>
	<stop  offset="0.8364" style="stop-color:#CCCCCC"/>
	<stop  offset="1" style="stop-color:#D1D1D1"/>
</linearGradient>
<path id="XMLID_42_" class="st2" d="M438,76.6v291.9c0,10-8.1,18-18,18H41c-10,0-18-8.1-18-18v-292c0-25.8,21.2-47,47-47h322.3
	C418,29.5,438,50.8,438,76.6z"/>
<linearGradient id="XMLID_4_" gradientUnits="userSpaceOnUse" x1="194.1" y1="254.35" x2="416.9" y2="254.35" gradientTransform="matrix(1 0 0 -1 0 398)">
	<stop  offset="0" style="stop-color:#821E25"/>
	<stop  offset="7.650241e-02" style="stop-color:#EB1E25"/>
	<stop  offset="0.1614" style="stop-color:#EE7821"/>
	<stop  offset="0.2435" style="stop-color:#F49C1E"/>
	<stop  offset="0.3329" style="stop-color:#F2BB18"/>
	<stop  offset="0.4171" style="stop-color:#F7DC09"/>
	<stop  offset="0.4979" style="stop-color:#F6ED12"/>
	<stop  offset="0.5851" style="stop-color:#CAD82B"/>
	<stop  offset="0.6796" style="stop-color:#ABC645"/>
	<stop  offset="0.7587" style="stop-color:#7AAEA2"/>
	<stop  offset="0.8451" style="stop-color:#317ABE"/>
	<stop  offset="0.9224" style="stop-color:#3E6DB5"/>
	<stop  offset="1" style="stop-color:#5E4FA2"/>
</linearGradient>
<path id="XMLID_2_" class="st3" d="M391.1,167.4H195.7c-0.9,0-1.6-0.7-1.6-1.6v-43.3c0-1.4,1.2-2.6,2.6-2.6h198.4
	c12,0,21.8,9.8,21.8,21.8l0,0C416.9,155.8,405.3,167.4,391.1,167.4z"/>
<rect id="XMLID_5_" x="107.6" y="198.9" class="st4" width="29" height="68.3"/>
<rect id="XMLID_13_" x="107.6" y="296.8" class="st5" width="29" height="68.3"/>
<rect id="XMLID_14_" x="148.3" y="296.8" class="st6" width="29" height="68.3"/>
<rect id="XMLID_15_" x="187.6" y="296.8" class="st7" width="29" height="68.3"/>
<rect id="XMLID_16_" x="230.4" y="296.8" class="st8" width="29" height="68.3"/>
<rect id="XMLID_17_" x="273.1" y="296.8" class="st9" width="29" height="68.3"/>
<rect id="XMLID_18_" x="313.5" y="296.8" class="st10" width="29" height="68.3"/>
<rect id="XMLID_19_" x="357.6" y="296.8" class="st11" width="29" height="68.3"/>
<rect id="XMLID_7_" x="148.3" y="198.9" class="st12" width="29" height="68.3"/>
<rect id="XMLID_8_" x="187.6" y="198.9" class="st13" width="29" height="68.3"/>
<rect id="XMLID_9_" x="230.4" y="198.9" class="st14" width="29" height="68.3"/>
<rect id="XMLID_10_" x="273.1" y="198.9" class="st15" width="29" height="68.3"/>
<rect id="XMLID_11_" x="313.5" y="198.9" class="st16" width="29" height="68.3"/>
<rect id="XMLID_12_" x="357.6" y="198.9" class="st17" width="29" height="68.3"/>
<text id="XMLID_6_" transform="matrix(1 0 0 1 346.5716 149)" class="st18 st19 st20">0 - 13</text>
<g id="XMLID_21_">
	
		<image style="overflow:visible;opacity:0.75;enable-background:new    ;" width="18" height="34" id="XMLID_340_" xlink:href="500790FA8EEECE7A.png"  transform="matrix(1 0 0 1 112.5 173)">
	</image>
	<g id="XMLID_268_">
		<text id="XMLID_338_" transform="matrix(1 0 0 1 116.5418 192)" class="st18 st19 st20">0</text>
	</g>
</g>
<g id="XMLID_24_">
	
		<image style="overflow:visible;opacity:0.75;enable-background:new    ;" width="18" height="34" id="XMLID_336_" xlink:href="500790FA8EEECE7B.png"  transform="matrix(1 0 0 1 152.5 173)">
	</image>
	<g id="XMLID_188_">
		<text id="XMLID_334_" transform="matrix(1 0 0 1 157.2316 192)" class="st18 st19 st20">1</text>
	</g>
</g>
<g id="XMLID_25_">
	
		<image style="overflow:visible;opacity:0.75;enable-background:new    ;" width="18" height="34" id="XMLID_333_" xlink:href="500790FA8EEECE7C.png"  transform="matrix(1 0 0 1 192.5 173)">
	</image>
	<g id="XMLID_180_">
		<text id="XMLID_279_" transform="matrix(1 0 0 1 196.5421 192)" class="st18 st19 st20">2</text>
	</g>
</g>
<g id="XMLID_26_">
	
		<image style="overflow:visible;opacity:0.75;enable-background:new    ;" width="18" height="34" id="XMLID_278_" xlink:href="500790FA8EEECE7D.png"  transform="matrix(1 0 0 1 234.5 173)">
	</image>
	<g id="XMLID_177_">
		<text id="XMLID_274_" transform="matrix(1 0 0 1 239.3007 192)" class="st18 st19 st20">3</text>
	</g>
</g>
<g id="XMLID_27_">
	
		<image style="overflow:visible;opacity:0.75;enable-background:new    ;" width="18" height="34" id="XMLID_276_" xlink:href="500790FA8EEECE78.png"  transform="matrix(1 0 0 1 277.5 173)">
	</image>
	<g id="XMLID_138_">
		<text id="XMLID_272_" transform="matrix(1 0 0 1 282.0596 192)" class="st18 st19 st20">4</text>
	</g>
</g>
<g id="XMLID_28_">
	
		<image style="overflow:visible;opacity:0.75;enable-background:new    ;" width="19" height="34" id="XMLID_273_" xlink:href="500790FA8EEECE79.png"  transform="matrix(1 0 0 1 317.5 173)">
	</image>
	<g id="XMLID_130_">
		<text id="XMLID_269_" transform="matrix(1 0 0 1 322.4045 192)" class="st18 st19 st20">5</text>
	</g>
</g>
<g id="XMLID_29_">
	
		<image style="overflow:visible;opacity:0.75;enable-background:new    ;" width="19" height="34" id="XMLID_270_" xlink:href="500790FA8EEECE68.png"  transform="matrix(1 0 0 1 359.5 173)">
	</image>
	<g id="XMLID_135_">
		<text id="XMLID_266_" transform="matrix(1 0 0 1 364.4039 192)" class="st18 st19 st20">6</text>
	</g>
</g>
<g id="XMLID_30_">
	
		<image style="overflow:visible;opacity:0.75;enable-background:new    ;" width="29" height="34" id="XMLID_359_" xlink:href="500790FA8EEECE69.png"  transform="matrix(1 0 0 1 356.5 270)">
	</image>
	<g id="XMLID_264_">
		<text id="XMLID_324_" transform="matrix(1 0 0 1 360.9802 289)" class="st18 st19 st20">13</text>
	</g>
</g>
<g id="XMLID_31_">
	
		<image style="overflow:visible;opacity:0.75;enable-background:new    ;" width="29" height="34" id="XMLID_361_" xlink:href="500790FA8EEECE6A.png"  transform="matrix(1 0 0 1 312.5 270)">
	</image>
	<g id="XMLID_195_">
		<text id="XMLID_281_" transform="matrix(1 0 0 1 316.8426 289)" class="st18 st19 st20">12</text>
	</g>
</g>
<g id="XMLID_32_">
	
		<image style="overflow:visible;opacity:0.75;enable-background:new    ;" width="30" height="34" id="XMLID_364_" xlink:href="9117F436A883CED2.png"  transform="matrix(1 0 0 1 271.5 270)">
	</image>
	<g id="XMLID_187_">
		<text id="XMLID_356_" transform="matrix(1 0 0 1 276.4975 289)" class="st18 st19 st20">11</text>
	</g>
</g>
<g id="XMLID_33_">
	
		<image style="overflow:visible;opacity:0.75;enable-background:new    ;" width="29" height="34" id="XMLID_367_" xlink:href="9117F436A883CED3.png"  transform="matrix(1 0 0 1 229.5 272)">
	</image>
	<g id="XMLID_190_">
		<text id="XMLID_360_" transform="matrix(1 0 0 1 233.7393 291)" class="st18 st19 st20">10</text>
	</g>
</g>
<g id="XMLID_34_">
	
		<image style="overflow:visible;opacity:0.75;enable-background:new    ;" width="18" height="34" id="XMLID_369_" xlink:href="9117F436A883CED4.png"  transform="matrix(1 0 0 1 192.5 272)">
	</image>
	<g id="XMLID_192_">
		<text id="XMLID_362_" transform="matrix(1 0 0 1 196.5417 291)" class="st18 st19 st20">9</text>
	</g>
</g>
<g id="XMLID_35_">
	
		<image style="overflow:visible;opacity:0.75;enable-background:new    ;" width="18" height="34" id="XMLID_371_" xlink:href="9117F436A883CED5.png"  transform="matrix(1 0 0 1 152.5 272)">
	</image>
	<g id="XMLID_203_">
		<text id="XMLID_366_" transform="matrix(1 0 0 1 157.2315 291)" class="st18 st19 st20">8</text>
	</g>
</g>
<g id="XMLID_36_">
	
		<image style="overflow:visible;opacity:0.75;enable-background:new    ;" width="18" height="34" id="XMLID_372_" xlink:href="9117F436A883CED7.png"  transform="matrix(1 0 0 1 112.5 272)">
	</image>
	<g id="XMLID_357_">
		<text id="XMLID_368_" transform="matrix(1 0 0 1 116.5419 291)" class="st18 st19 st20">7</text>
	</g>
</g>
<g id="XMLID_23_">
	<rect id="XMLID_353_" x="103.8" y="77" class="st21" width="266.2" height="76"/>
	<text transform="matrix(1 0 0 1 237.1528 114.9817)" class="st22 st23 st24">Papers</text>
</g>
<rect x="82.8" y="178.8" class="st21" width="67.5" height="50.5"/>
<text transform="matrix(1 0 0 1 82.7918 191.6919)" class="st25 st19 st24">pH</text>
<rect x="168.2" y="92.1" class="st21" width="111.5" height="55.5"/>
<text transform="matrix(1 0 0 1 168.25 115.0973)" class="st25 st23 st26">pH</text>
<rect x="82.8" y="278.8" class="st21" width="67.5" height="50.5"/>
<text transform="matrix(1 0 0 1 82.7919 291.6919)" class="st25 st19 st24">pH</text>
</svg>
