<?xml version="1.0" encoding="utf-8"?>
<!-- Generator: Adobe Illustrator 21.0.0, SVG Export Plug-In . SVG Version: 6.00 Build 0)  -->
<svg version="1.1" id="Layer_1" xmlns="http://www.w3.org/2000/svg" xmlns:xlink="http://www.w3.org/1999/xlink" x="0px" y="0px"
	 viewBox="0 0 800 800" style="enable-background:new 0 0 800 800;" xml:space="preserve">
<style type="text/css">
	.st0{fill:#E6E6E6;}
	.st1{fill:#999999;stroke:#000000;stroke-width:2.5147;stroke-miterlimit:10;}
	.st2{fill:none;stroke:#000000;stroke-miterlimit:10;}
	.st3{fill:#FFFF00;stroke:#000000;stroke-miterlimit:10;}
	.st4{fill:none;stroke:#000000;stroke-width:3;stroke-miterlimit:10;}
	.st5{font-family:'MyriadPro-Bold';}
	.st6{font-size:23px;}
	.st7{fill:none;}
	.st8{font-size:15px;}
	.st9{fill:#3D3D3D;}
	.st10{fill:none;stroke:#E6E6E6;stroke-width:0.5;stroke-miterlimit:10;}
</style>
<rect id="XMLID_31_" x="78.3" y="100.2" class="st0" width="640.7" height="376.7"/>
<rect id="XMLID_2_" x="182.8" y="163.9" class="st1" width="431.7" height="111.1"/>
<line id="XMLID_3_" class="st2" x1="183" y1="213.5" x2="616" y2="213.5"/>
<rect id="XMLID_4_" x="195.3" y="172.2" class="st3" width="49.7" height="34.5"/>
<rect id="XMLID_17_" x="264.7" y="172.2" class="st3" width="49.7" height="34.5"/>
<rect id="XMLID_18_" x="338.5" y="172.2" class="st3" width="49.7" height="34.5"/>
<rect id="XMLID_19_" x="410.5" y="172.2" class="st3" width="49.7" height="34.5"/>
<rect id="XMLID_20_" x="484" y="172.2" class="st3" width="49.7" height="34.5"/>
<rect id="XMLID_21_" x="554" y="172.2" class="st3" width="49.7" height="34.5"/>
<line id="XMLID_16_" class="st2" x1="254.5" y1="164" x2="254.5" y2="274.9"/>
<line id="XMLID_24_" class="st2" x1="326.5" y1="164" x2="326.5" y2="274.9"/>
<line id="XMLID_25_" class="st2" x1="397.5" y1="164" x2="397.5" y2="274.9"/>
<line id="XMLID_26_" class="st2" x1="474.5" y1="164" x2="474.5" y2="274.9"/>
<line id="XMLID_27_" class="st2" x1="541.5" y1="164" x2="541.5" y2="274.9"/>
<line id="XMLID_28_" class="st2" x1="614.5" y1="164" x2="614.5" y2="274.9"/>
<line id="XMLID_22_" class="st4" x1="206" y1="387.5" x2="581" y2="387.5"/>
<line id="XMLID_33_" class="st4" x1="205.5" y1="376" x2="205.5" y2="400"/>
<line id="XMLID_35_" class="st4" x1="581.5" y1="375" x2="581.5" y2="399"/>
<line id="XMLID_1_" class="st2" x1="233.5" y1="381" x2="233.5" y2="393"/>
<line id="XMLID_36_" class="st2" x1="260.5" y1="381" x2="260.5" y2="393"/>
<line id="XMLID_37_" class="st2" x1="287.5" y1="381" x2="287.5" y2="393"/>
<line id="XMLID_38_" class="st2" x1="313.5" y1="381" x2="313.5" y2="393"/>
<line id="XMLID_42_" class="st2" x1="340.5" y1="381" x2="340.5" y2="393"/>
<line id="XMLID_43_" class="st2" x1="367.5" y1="381" x2="367.5" y2="393"/>
<line id="XMLID_44_" class="st2" x1="393.5" y1="381" x2="393.5" y2="393"/>
<line id="XMLID_45_" class="st2" x1="419.5" y1="381" x2="419.5" y2="393"/>
<line id="XMLID_46_" class="st2" x1="447.5" y1="381" x2="447.5" y2="393"/>
<line id="XMLID_47_" class="st2" x1="474.5" y1="381" x2="474.5" y2="393"/>
<line id="XMLID_48_" class="st2" x1="500.5" y1="381" x2="500.5" y2="393"/>
<line id="XMLID_49_" class="st2" x1="526.5" y1="381" x2="526.5" y2="393"/>
<line id="XMLID_50_" class="st2" x1="553.5" y1="381" x2="553.5" y2="393"/>
<g id="Layer_2">
	<text id="XMLID_40_" transform="matrix(1 0 0 1 213.4637 198.7583)" class="st5 st6">1</text>
	<text id="XMLID_39_" transform="matrix(1 0 0 1 283.7756 198.7581)" class="st5 st6">2</text>
	<text id="XMLID_32_" transform="matrix(1 0 0 1 429.085 198.758)" class="st5 st6">4</text>
	<text id="XMLID_30_" transform="matrix(1 0 0 1 358.085 198.7582)" class="st5 st6">3</text>
	<text id="XMLID_29_" transform="matrix(1 0 0 1 502.585 198.7583)" class="st5 st6">5</text>
	<text id="XMLID_23_" transform="matrix(1 0 0 1 573.085 198.7583)" class="st5 st6">6</text>
	<rect id="XMLID_34_" x="198.3" y="402.3" class="st7" width="14.3" height="11.7"/>
	<text id="XMLID_51_" transform="matrix(1 0 0 1 201.3377 412.9824)" class="st5 st8">0</text>
	<rect id="XMLID_54_" x="226.3" y="402.3" class="st7" width="14.3" height="11.7"/>
	<text id="XMLID_53_" transform="matrix(1 0 0 1 229.3377 412.9824)" class="st5 st8">1</text>
	<rect id="XMLID_56_" x="253.3" y="402.3" class="st7" width="14.3" height="11.7"/>
	<text id="XMLID_55_" transform="matrix(1 0 0 1 256.3377 412.9824)" class="st5 st8">2</text>
	<rect id="XMLID_58_" x="280.3" y="402.3" class="st7" width="14.3" height="11.7"/>
	<text id="XMLID_57_" transform="matrix(1 0 0 1 283.3377 412.9824)" class="st5 st8">3</text>
	<rect id="XMLID_60_" x="307.2" y="402.3" class="st7" width="14.3" height="11.7"/>
	<text id="XMLID_59_" transform="matrix(1 0 0 1 310.1711 412.9824)" class="st5 st8">4</text>
	<rect id="XMLID_62_" x="333.3" y="402.3" class="st7" width="14.3" height="11.7"/>
	<text id="XMLID_61_" transform="matrix(1 0 0 1 336.3377 412.9824)" class="st5 st8">5</text>
	<rect id="XMLID_64_" x="360.3" y="402.3" class="st7" width="14.3" height="11.7"/>
	<text id="XMLID_63_" transform="matrix(1 0 0 1 363.3377 412.9824)" class="st5 st8">6</text>
	<rect id="XMLID_66_" x="386.3" y="402.3" class="st7" width="14.3" height="11.7"/>
	<text id="XMLID_65_" transform="matrix(1 0 0 1 389.3377 412.9824)" class="st5 st8">7</text>
	<rect id="XMLID_68_" x="412.3" y="402.3" class="st7" width="14.3" height="11.7"/>
	<text id="XMLID_67_" transform="matrix(1 0 0 1 415.3377 412.9824)" class="st5 st8">8</text>
	<rect id="XMLID_70_" x="440.3" y="402.3" class="st7" width="14.3" height="11.7"/>
	<text id="XMLID_69_" transform="matrix(1 0 0 1 443.3377 412.9824)" class="st5 st8">9</text>
	<rect id="XMLID_72_" x="464.7" y="402.3" class="st7" width="19.7" height="11.7"/>
	<text id="XMLID_71_" transform="matrix(1 0 0 1 466.175 412.9824)" class="st5 st8">10</text>
	<rect id="XMLID_74_" x="491.7" y="402.3" class="st7" width="17.7" height="11.7"/>
	<text id="XMLID_73_" transform="matrix(1 0 0 1 492.175 412.9824)" class="st5 st8">11</text>
	<rect id="XMLID_76_" x="517.2" y="401.3" class="st7" width="18.7" height="13.7"/>
	<text id="XMLID_75_" transform="matrix(1 0 0 1 518.175 411.9824)" class="st5 st8">12</text>
	<rect id="XMLID_78_" x="544.9" y="402.3" class="st7" width="17.2" height="11.7"/>
	<text id="XMLID_77_" transform="matrix(1 0 0 1 545.1753 412.9824)" class="st5 st8">13</text>
	<rect id="XMLID_80_" x="571.8" y="402.3" class="st7" width="19.3" height="11.7"/>
	<text id="XMLID_79_" transform="matrix(1 0 0 1 573.1752 412.9824)" class="st5 st8">14</text>
	<text id="XMLID_52_" transform="matrix(1 0 0 1 368.3677 371.3345)" class="st5 st8">Neutral</text>
	<text id="XMLID_81_" transform="matrix(1 0 0 1 191.1729 371.3345)" class="st5 st8">Acid</text>
	<text id="XMLID_82_" transform="matrix(1 0 0 1 559.04 371.3345)" class="st5 st8">Bases</text>
</g>
<g>
	<polygon class="st9" points="120,130.2 112.2,130.2 108.3,136.9 112.2,143.7 120,143.7 123.9,136.9 	"/>
	<circle class="st10" cx="116.1" cy="136.9" r="4.6"/>
	<circle class="st0" cx="116.1" cy="136.9" r="3.2"/>
</g>
<g>
	<polygon class="st9" points="685.1,130.2 677.3,130.2 673.4,136.9 677.3,143.7 685.1,143.7 689,136.9 	"/>
	<circle class="st10" cx="681.2" cy="136.9" r="4.6"/>
	<circle class="st0" cx="681.2" cy="136.9" r="3.2"/>
</g>
<g>
	<polygon class="st9" points="120,433.2 112.2,433.2 108.3,439.9 112.2,446.7 120,446.7 123.9,439.9 	"/>
	<circle class="st10" cx="116.1" cy="439.9" r="4.6"/>
	<circle class="st0" cx="116.1" cy="439.9" r="3.2"/>
</g>
<g>
	<polygon class="st9" points="685.1,433.2 677.3,433.2 673.4,439.9 677.3,446.7 685.1,446.7 689,439.9 	"/>
	<circle class="st10" cx="681.2" cy="439.9" r="4.6"/>
	<circle class="st0" cx="681.2" cy="439.9" r="3.2"/>
</g>
</svg>
