<?xml version="1.0" encoding="UTF-8"?>
<!-- Generator: Adobe Illustrator 18.0.0, SVG Export Plug-In . SVG Version: 6.00 Build 0)  --><svg xmlns="http://www.w3.org/2000/svg" xmlns:xlink="http://www.w3.org/1999/xlink" version="1.1" id="Layer_1" x="0px" y="0px" viewBox="0 0 35 35" enable-background="new 0 0 35 35" xml:space="preserve">
<path opacity="0.85" fill="#111320" enable-background="new    " d="M29,5.2C29,4.5,28.5,4,27.8,4H12.2C11.5,4,11,4.5,11,5.2v20.6  c0,0.7,0.5,1.2,1.2,1.2h15.6c0.7,0,1.2-0.5,1.2-1.2V5.2z M27,25H13V6h14V25z" />
<path opacity="0.85" fill="#111320" enable-background="new    " d="M20,28v1H8V12h2v-2H7.2C6.5,10,6,10.5,6,11.2v18.6  C6,30.5,6.5,31,7.2,31h13.6c0.7,0,1.2-0.5,1.2-1.2V28H20z" />
<path fill="#077E9A" d="M23.8,15.5C23.6,15.2,23.3,15,23,15h-2v-1.1v-4c0-0.5-0.3-0.9-0.8-1s-0.9,0.1-1.1,0.5L16,15.6  c-0.1,0.3-0.1,0.7,0.1,1c0.2,0.3,0.5,0.5,0.8,0.5H19v1v4c0,0.5,0.3,0.9,0.8,1c0.5,0.1,0.9-0.1,1.1-0.5l3.1-6.1  C24.1,16.1,24,15.7,23.8,15.5z" />
</svg>
