<?xml version="1.0" encoding="UTF-8"?>
<!-- Generator: Adobe Illustrator 18.0.0, SVG Export Plug-In . SVG Version: 6.00 Build 0)  --><svg xmlns="http://www.w3.org/2000/svg" xmlns:xlink="http://www.w3.org/1999/xlink" version="1.1" id="Layer_1" x="0px" y="0px" viewBox="0 0 35 35" enable-background="new 0 0 35 35" xml:space="preserve">
<polygon fill="#007D99" points="12,13 10,11 8,13 12,17 18,11 16.1,9 " />
<rect x="20" y="14" fill="#007D99" width="7" height="2" />
<rect x="20" y="24" fill="#007D99" width="7" height="2" />
<path opacity="0.85" fill="#0A0D1E" enable-background="new    " d="M25,1h-1H4.2C3.5,1,3,1.5,3,2.2v30.6C3,33.5,3.5,34,4.2,34h26.6  c0.7,0,1.2-0.5,1.2-1.2V10V8 M26,5l3,3h-3V5z M30,32H5V3h19v7h4c0,0,0,0,0.1,0H30V32z" />
<polygon fill="#007D99" points="12,23 10,21 8,23 12,27 18,21 16.1,19 " />
</svg>
