<?xml version="1.0" encoding="UTF-8"?>
<!-- Generator: Adobe Illustrator 18.0.0, SVG Export Plug-In . SVG Version: 6.00 Build 0)  --><svg xmlns="http://www.w3.org/2000/svg" xmlns:sketch="http://www.bohemiancoding.com/sketch/ns" xmlns:xlink="http://www.w3.org/1999/xlink" version="1.1" id="Layer_1" x="0px" y="0px" viewBox="0 0 27 27" enable-background="new 0 0 27 27" xml:space="preserve">
<title>info</title>
<desc>Created with Sketch.</desc>
<g id="Page-1" sketch:type="MSPage">
	<g id="info" sketch:type="MSLayerGroup">
		<g id="Shape" opacity="0.85" enable-background="new    ">
			<path sketch:type="MSShapeGroup" fill="#FFFFFF" d="M13.5,2.1c6.3,0,11.4,5.1,11.4,11.4s-5.1,11.4-11.4,11.4S2.1,19.8,2.1,13.5     S7.2,2.1,13.5,2.1L13.5,2.1z M13.5,0C6.1,0,0,6.1,0,13.5S6.1,27,13.5,27S27,20.9,27,13.5S20.9,0,13.5,0L13.5,0z" />
		</g>
	</g>
</g>
<g>
	<path fill="#FFFFFF" d="M14.4,10.7c0-0.7-0.5-1.1-1.2-1.1c-0.7,0-1.1,0.3-1.6,0.8l-1.4-1.3c0.8-1,1.9-1.6,3.2-1.6   c2,0,3.5,0.9,3.5,3.1c0,2.2-2.7,2.3-2.5,4.5l-2.3,0C11.7,12.5,14.4,12,14.4,10.7z M13.3,16.8c0.8,0,1.4,0.6,1.4,1.4   c0,0.8-0.6,1.4-1.4,1.4c-0.8,0-1.3-0.6-1.3-1.4C11.9,17.4,12.5,16.8,13.3,16.8z" />
</g>
</svg>
