<?xml version="1.0" encoding="utf-8"?>
<!-- Generator: Adobe Illustrator 19.2.1, SVG Export Plug-In . SVG Version: 6.00 Build 0)  -->
<svg version="1.1" id="Layer_1" xmlns="http://www.w3.org/2000/svg" xmlns:xlink="http://www.w3.org/1999/xlink" x="0px" y="0px"
	 viewBox="0 0 148 60" style="enable-background:new 0 0 148 60;" xml:space="preserve">
<style type="text/css">
	.st0{fill:#FBD104;}
	.st1{fill:#02488F;}
</style>
<g>
	<path class="st0" d="M98.02,31.03c-0.51,1.53-1.02,3.06-1.52,4.59c-0.33,0.99-0.65,1.97-0.95,2.96c-0.07,0.22-0.17,0.28-0.37,0.28
		c-1.7,0-3.4-0.01-5.1,0.01c-0.35,0-0.37-0.23-0.44-0.45c-0.81-2.46-1.61-4.92-2.42-7.38c-0.02-0.07-0.06-0.13-0.2-0.18
		c0,0.8,0,1.61,0,2.41c0,1.66-0.01,3.32,0.02,4.98c0.01,0.47-0.12,0.62-0.6,0.61c-1.66-0.03-3.32-0.03-4.98,0
		c-0.5,0.01-0.64-0.16-0.63-0.66c0.03-5.96,0.04-11.92,0.03-17.88c0-0.48,0.14-0.61,0.61-0.6c2.7,0.03,5.4,0.03,8.1,0.02
		c0.43,0,0.58,0.17,0.69,0.55c0.74,2.55,1.5,5.1,2.26,7.64c0.04,0.13,0.03,0.28,0.22,0.38c0.53-1.8,1.06-3.59,1.59-5.38
		c0.28-0.94,0.56-1.88,0.82-2.82c0.08-0.28,0.21-0.37,0.51-0.37c2.76,0.02,5.52,0.03,8.28,0.03c0.38,0,0.47,0.15,0.47,0.5
		c-0.02,6.06-0.03,12.12-0.03,18.18c0,0.35-0.11,0.44-0.45,0.44c-1.76-0.02-3.52-0.03-5.28-0.01c-0.42,0-0.49-0.15-0.48-0.53
		c0.02-2.43,0.01-4.87,0.01-7.3C98.1,31.04,98.06,31.04,98.02,31.03z M81.5,29.27c-0.01,0-0.02,0-0.03,0c0,2.78,0.01,5.56-0.01,8.34
		c0,0.48,0.13,0.59,0.6,0.58c1.26-0.03,2.52-0.03,3.78,0c0.47,0.01,0.55-0.14,0.55-0.58c-0.02-2.9-0.01-5.8,0.01-8.7
		c0-0.2-0.17-0.51,0.23-0.57c0.39-0.07,0.45,0.21,0.54,0.49c0.98,2.96,1.97,5.91,2.94,8.87c0.13,0.41,0.32,0.51,0.72,0.5
		c1.16-0.03,2.32-0.03,3.48,0c0.49,0.01,0.72-0.11,0.88-0.62c0.94-2.95,1.92-5.88,2.88-8.83c0.09-0.28,0.21-0.46,0.54-0.41
		c0.37,0.06,0.22,0.33,0.22,0.52c0.01,2.94,0.01,5.88,0,8.82c0,0.38,0.08,0.53,0.49,0.52c1.28-0.02,2.56-0.03,3.84,0.02
		c0.49,0.02,0.54-0.15,0.54-0.57c0-5.54,0-11.08,0.03-16.62c0-0.49-0.14-0.65-0.63-0.65c-2.28,0.02-4.56,0.02-6.84,0
		c-0.39,0-0.56,0.12-0.66,0.49c-0.4,1.46-0.84,2.92-1.26,4.37c-0.41,1.42-0.82,2.84-1.24,4.26c-0.06,0.2-0.09,0.43-0.4,0.42
		c-0.31,0-0.33-0.23-0.4-0.43c-0.03-0.08-0.05-0.15-0.08-0.23c-0.82-2.78-1.64-5.56-2.45-8.34c-0.11-0.38-0.25-0.58-0.71-0.57
		c-2.3,0.03-4.6,0.03-6.9-0.01c-0.56-0.01-0.65,0.17-0.65,0.68C81.51,23.79,81.5,26.53,81.5,29.27z"/>
	<path class="st0" d="M72.85,26.53c0-1.67,0-3.34,0-5.01c0-0.48,0.01-0.96,0-1.44c-0.01-0.28,0.1-0.39,0.39-0.39
		c1.9,0.01,3.8,0.02,5.7,0.01c0.37,0,0.41,0.18,0.41,0.49c-0.01,4.42-0.01,8.84-0.02,13.26c0,1.6-0.02,3.2,0,4.8
		c0.01,0.45-0.12,0.59-0.57,0.58c-1.58-0.03-3.16-0.02-4.74,0c-0.35,0-0.58-0.11-0.79-0.39c-1.77-2.31-3.56-4.62-5.34-6.92
		c-0.07-0.09-0.15-0.18-0.24-0.3c-0.21,0.19-0.12,0.42-0.12,0.61c-0.01,2.14-0.03,4.28,0,6.42c0.01,0.5-0.16,0.6-0.61,0.59
		c-1.72-0.03-3.44-0.05-5.16-0.03c-0.44,0-0.57-0.11-0.57-0.56c0.02-5.1,0.03-10.2,0.03-15.29c0-0.92,0.01-1.84,0-2.76
		c-0.01-0.34,0.05-0.51,0.45-0.5c1.98,0.02,3.96,0.02,5.94,0c0.37,0,0.52,0.21,0.7,0.47c1.47,2.14,2.95,4.27,4.42,6.41
		C72.76,26.54,72.81,26.53,72.85,26.53z M61.89,29.16c-0.01,0-0.02,0-0.03,0c0,2.78,0.02,5.56-0.01,8.34
		c-0.01,0.54,0.15,0.67,0.67,0.65c1.24-0.04,2.48-0.02,3.72,0.01c0.46,0.01,0.61-0.1,0.61-0.59c-0.02-2.44-0.01-4.88,0.01-7.32
		c0-0.16-0.1-0.39,0.14-0.46c0.22-0.06,0.44-0.03,0.57,0.2c0.05,0.09,0.12,0.16,0.18,0.24c1.9,2.47,3.82,4.93,5.71,7.41
		c0.29,0.39,0.6,0.55,1.1,0.53c1.22-0.04,2.44-0.02,3.66-0.01c0.36,0.01,0.48-0.09,0.48-0.47c0-5.62,0.01-11.24,0.03-16.85
		c0-0.37-0.1-0.48-0.47-0.48c-1.16,0.02-2.32,0-3.48-0.01c-1.23,0-1.23,0-1.23,1.25c0,1.98-0.01,3.96-0.02,5.94
		c0,0.18,0.09,0.44-0.18,0.51c-0.26,0.07-0.47-0.03-0.59-0.29c-0.03-0.07-0.09-0.13-0.13-0.2c-1.56-2.25-3.12-4.5-4.66-6.76
		c-0.24-0.36-0.5-0.48-0.93-0.48c-1.52,0.03-3.04,0.03-4.56,0c-0.49-0.01-0.59,0.15-0.58,0.61C61.9,23.68,61.89,26.42,61.89,29.16z"
		/>
	<path class="st0" d="M114.12,32.39c-1.57,1.32-3.15,2.64-4.72,3.96c-0.98,0.82-1.96,1.63-2.97,2.46c-0.21-0.26-0.11-0.53-0.11-0.77
		c-0.01-0.92,0.02-1.84,0-2.76c-0.01-0.3,0.1-0.48,0.31-0.66c2.04-1.67,4.07-3.35,6.11-5.01c0.33-0.27,0.48-0.42,0.02-0.76
		c-2.05-1.55-4.06-3.16-6.1-4.73c-0.22-0.17-0.35-0.33-0.35-0.64c0.02-1.04,0-2.08,0.01-3.12c0-0.13-0.08-0.31,0.08-0.38
		c0.17-0.07,0.29,0.09,0.41,0.19c1.84,1.47,3.68,2.93,5.52,4.4c0.6,0.48,1.2,0.99,1.79,1.48C114.12,28.16,114.12,30.27,114.12,32.39
		z"/>
	<path class="st0" d="M59.61,34.99c0,0.86-0.01,1.72,0.01,2.58c0.01,0.39-0.12,0.57-0.51,0.73c-2.69,1.09-5.49,1.15-8.32,0.98
		c-1.75-0.11-3.43-0.56-4.98-1.4c-2.63-1.43-4.12-3.65-4.54-6.59c-0.26-1.86-0.22-3.71,0.33-5.52c0.94-3.09,3.06-5.04,6.1-5.9
		c3.89-1.11,7.78-0.97,11.59,0.49c0.3,0.12,0.44,0.24,0.44,0.59c-0.03,1.8-0.03,3.6-0.02,5.4c0,0.41-0.13,0.4-0.46,0.29
		c-2.01-0.65-4.04-1.14-6.18-0.86c-0.91,0.12-1.73,0.48-2.42,1.09c-1.56,1.39-1.45,3.75,0.23,4.99c1.3,0.96,2.79,1.13,4.34,0.97
		c1.37-0.15,2.74-0.36,4.04-0.85c0.34-0.13,0.41-0.02,0.4,0.31c-0.02,0.9-0.01,1.8-0.01,2.7C59.63,34.99,59.62,34.99,59.61,34.99z
		 M58.93,35.28c0.01,0,0.03,0,0.04,0c0-0.68-0.02-1.36,0.01-2.04c0.02-0.39-0.11-0.44-0.45-0.34c-0.9,0.27-1.83,0.41-2.76,0.53
		c-1.46,0.19-2.92,0.19-4.29-0.44c-1.43-0.66-2.42-1.69-2.57-3.34c-0.16-1.69,0.58-2.94,1.99-3.81c0.98-0.6,2.07-0.83,3.21-0.82
		c1.51,0.01,2.98,0.27,4.43,0.68c0.4,0.11,0.51,0.07,0.5-0.36c-0.02-1.26-0.02-2.52,0.02-3.78c0.01-0.46-0.15-0.66-0.57-0.8
		c-3.45-1.13-6.95-1.27-10.44-0.31c-2.53,0.69-4.47,2.19-5.51,4.67c-0.65,1.54-0.83,3.17-0.73,4.82c0.25,4.36,2.33,6.98,6.51,8.22
		c2.17,0.65,4.38,0.57,6.6,0.42c1.24-0.08,2.45-0.33,3.61-0.78c0.31-0.12,0.44-0.27,0.43-0.6C58.92,36.56,58.93,35.92,58.93,35.28z"
		/>
	<path class="st1" d="M114.12,32.39c0-2.11,0-4.23,0-6.34c1.31,0.9,2.52,1.94,3.78,2.91c0.22,0.17,0.16,0.26-0.02,0.4
		C116.63,30.36,115.37,31.38,114.12,32.39z"/>
	<path class="st1" d="M81.5,29.27c0-2.74,0.01-5.48-0.01-8.22c0-0.5,0.09-0.69,0.65-0.68c2.3,0.04,4.6,0.04,6.9,0.01
		c0.47-0.01,0.6,0.19,0.71,0.57c0.81,2.78,1.63,5.56,2.45,8.34c0.02,0.08,0.05,0.15,0.08,0.23c0.07,0.2,0.09,0.43,0.4,0.43
		c0.32,0,0.34-0.22,0.4-0.42c0.42-1.42,0.83-2.84,1.24-4.26c0.42-1.46,0.86-2.91,1.26-4.37c0.1-0.38,0.27-0.5,0.66-0.49
		c2.28,0.02,4.56,0.02,6.84,0c0.49,0,0.63,0.15,0.63,0.65c-0.03,5.54-0.03,11.08-0.03,16.62c0,0.41-0.05,0.59-0.54,0.57
		c-1.28-0.05-2.56-0.04-3.84-0.02c-0.41,0.01-0.49-0.14-0.49-0.52c0.01-2.94,0.01-5.88,0-8.82c0-0.19,0.15-0.46-0.22-0.52
		c-0.33-0.05-0.45,0.12-0.54,0.41c-0.96,2.94-1.95,5.88-2.88,8.83c-0.16,0.5-0.39,0.63-0.88,0.62c-1.16-0.03-2.32-0.03-3.48,0
		c-0.4,0.01-0.59-0.09-0.72-0.5c-0.96-2.96-1.96-5.92-2.94-8.87c-0.09-0.28-0.15-0.55-0.54-0.49c-0.39,0.07-0.23,0.37-0.23,0.57
		c-0.02,2.9-0.03,5.8-0.01,8.7c0,0.43-0.08,0.59-0.55,0.58c-1.26-0.03-2.52-0.03-3.78,0c-0.46,0.01-0.6-0.1-0.6-0.58
		c0.03-2.78,0.01-5.56,0.01-8.34C81.48,29.27,81.49,29.27,81.5,29.27z"/>
	<path class="st1" d="M61.89,29.16c0-2.74,0.01-5.48-0.01-8.22c0-0.45,0.09-0.62,0.58-0.61c1.52,0.04,3.04,0.03,4.56,0
		c0.43-0.01,0.69,0.12,0.93,0.48c1.54,2.26,3.11,4.51,4.66,6.76c0.05,0.07,0.1,0.13,0.13,0.2c0.12,0.26,0.33,0.36,0.59,0.29
		c0.27-0.07,0.17-0.33,0.18-0.51c0.01-1.98,0.01-3.96,0.02-5.94c0-1.25,0-1.25,1.23-1.25c1.16,0,2.32,0.02,3.48,0.01
		c0.37-0.01,0.47,0.11,0.47,0.48c-0.02,5.62-0.03,11.24-0.03,16.85c0,0.38-0.12,0.47-0.48,0.47c-1.22-0.02-2.44-0.03-3.66,0.01
		c-0.5,0.02-0.8-0.15-1.1-0.53c-1.89-2.48-3.8-4.94-5.71-7.41c-0.06-0.08-0.13-0.15-0.18-0.24c-0.14-0.23-0.36-0.26-0.57-0.2
		c-0.24,0.07-0.14,0.3-0.14,0.46c-0.01,2.44-0.03,4.88-0.01,7.32c0,0.49-0.15,0.6-0.61,0.59c-1.24-0.03-2.48-0.05-3.72-0.01
		c-0.52,0.02-0.68-0.11-0.67-0.65c0.03-2.78,0.01-5.56,0.01-8.34C61.87,29.16,61.88,29.16,61.89,29.16z"/>
	<path class="st1" d="M58.93,35.28c0,0.64-0.02,1.28,0.01,1.92c0.01,0.34-0.12,0.49-0.43,0.6c-1.17,0.45-2.37,0.7-3.61,0.78
		c-2.22,0.14-4.43,0.22-6.6-0.42c-4.18-1.25-6.26-3.87-6.51-8.22c-0.09-1.65,0.09-3.28,0.73-4.82c1.04-2.48,2.99-3.98,5.51-4.67
		c3.49-0.96,6.99-0.82,10.44,0.31c0.43,0.14,0.59,0.34,0.57,0.8c-0.04,1.26-0.04,2.52-0.02,3.78c0.01,0.43-0.11,0.48-0.5,0.36
		c-1.45-0.41-2.92-0.67-4.43-0.68c-1.14-0.01-2.23,0.22-3.21,0.82c-1.41,0.87-2.15,2.12-1.99,3.81c0.15,1.64,1.14,2.68,2.57,3.34
		c1.38,0.63,2.83,0.62,4.29,0.44c0.93-0.12,1.86-0.26,2.76-0.53c0.34-0.1,0.46-0.05,0.45,0.34c-0.03,0.68-0.01,1.36-0.01,2.04
		C58.96,35.28,58.95,35.28,58.93,35.28z"/>
</g>
</svg>
