<?xml version="1.0" encoding="UTF-8"?>
<!-- Generator: Adobe Illustrator 18.0.0, SVG Export Plug-In . SVG Version: 6.00 Build 0)  --><svg xmlns="http://www.w3.org/2000/svg" xmlns:xlink="http://www.w3.org/1999/xlink" version="1.1" id="Layer_1" x="0px" y="0px" viewBox="0 0 35 35" enable-background="new 0 0 35 35" xml:space="preserve">
<path opacity="0.85" fill="#0A0D1E" enable-background="new    " d="M30,24c-0.6,0-1,0.4-1,1v2H18v-4c0-0.6-0.4-1-1-1s-1,0.4-1,1v4  H5v-2c0-0.6-0.4-1-1-1s-1,0.4-1,1v6c0,0.6,0.4,1,1,1s1-0.4,1-1v-2h11v2c0,0.6,0.4,1,1,1s1-0.4,1-1v-2h11v2c0,0.6,0.4,1,1,1  s1-0.4,1-1v-6C31,24.4,30.6,24,30,24z" />
<path opacity="0.85" fill="#0A0D1E" enable-background="new    " d="M17,2c-5,0-9,4-9,9s4,9,9,9s9-4,9-9S22,2,17,2z M17,18.1  c-3.8,0-7.1-3.2-7.1-7.1c0-3.8,3.1-7.1,7.1-7.1s7.1,3.2,7.1,7.1C24.1,14.8,20.9,18.1,17,18.1z" />
<path fill="#007D99" d="M19,11h-2V7c0-0.6-0.4-1-1-1s-1,0.4-1,1v5c0,0.6,0.4,1,1,1h3c0.6,0,1-0.4,1-1S19.6,11,19,11z" />
</svg>
