<?xml version="1.0" encoding="UTF-8"?>
<!-- Generator: Adobe Illustrator 18.0.0, SVG Export Plug-In . SVG Version: 6.00 Build 0)  --><svg xmlns="http://www.w3.org/2000/svg" xmlns:xlink="http://www.w3.org/1999/xlink" version="1.1" id="Layer_1" x="0px" y="0px" viewBox="0 0 35 35" enable-background="new 0 0 35 35" xml:space="preserve">
<g>
	<path fill="#027D98" d="M17.3,6.3C17.5,6.1,17.7,6,18,6s0.5,0.1,0.7,0.3C18.9,6.5,19,6.7,19,7s-0.1,0.5-0.3,0.7   C18.5,7.9,18.3,8,18,8l0,0c-0.3,0-0.5-0.1-0.7-0.3C17.1,7.5,17,7.3,17,7S17.1,6.5,17.3,6.3z" />
</g>
<path opacity="0.85" fill="#10121F" enable-background="new    " d="M32.1,9H27c-0.4-4.5-4.3-8-9-8S9.5,4.5,9,9H2.9  C1.9,9,1,9.8,1,10.9V32c0,1.1,0.9,2,1.9,2H32c1.1,0,2-0.9,2-2V11C34.1,9.9,33.1,9,32.1,9z M18,3.1c3.8,0,7,3.1,6.9,6.7  c0,3.1-2.1,5.7-5.2,6.5c-0.2,0.1-0.5,0.3-0.6,0.5l-1.2,2.3l-1.3-2.2c-0.2-0.3-0.4-0.4-0.6-0.5c-2.9-0.9-5-3.6-5-6.5  C11,6.2,14.2,3.1,18,3.1z M32,32H3V11h6.1c0.4,3.3,2.7,6,5.9,7.1l2,3.4c0.2,0.3,0.5,0.5,0.9,0.5s0.7-0.2,0.9-0.5l1.9-3.3  c3.4-1.1,5.7-3.9,6.2-7.2H32V32z" />
<path fill="#027D98" d="M18,14L18,14c-0.6,0-1-0.4-1-1v-3c0-0.6,0.4-1,1-1l0,0c0.6,0,1,0.4,1,1v3C19,13.6,18.6,14,18,14z" />
<polygon fill="#007D99" points="3,26.7 10,20 18,26.7 27,17 32,22 32,32 3,32 " />
</svg>
